<?xml version="1.0" encoding="utf-8"?>
<!-- Generator: Adobe Illustrator 19.2.1, SVG Export Plug-In . SVG Version: 6.00 Build 0)  -->
<svg version="1.1" id="layer" xmlns="http://www.w3.org/2000/svg" xmlns:xlink="http://www.w3.org/1999/xlink" x="0px" y="0px"
	 viewBox="0 0 652 652" style="enable-background:new 0 0 652 652;" xml:space="preserve">
<style type="text/css">
	.st0{fill-rule:evenodd;clip-rule:evenodd;fill:#FFFFFF;}
	.st1{fill-rule:evenodd;clip-rule:evenodd;fill:#C78049;}
	.st2{fill-rule:evenodd;clip-rule:evenodd;fill:#A4693A;}
	.st3{fill-rule:evenodd;clip-rule:evenodd;fill:#3C5F36;}
	.st4{fill:none;stroke:#A4693A;stroke-width:8.2251;}
	.st5{fill:#FFFFFF;}
	.st6{fill:none;stroke:#FFFFFF;stroke-width:0.4631;}
</style>
<g>
	<path class="st0" d="M204.2,365.6l0.1-0.5c-0.2-0.8-1.6-0.8-1.8-1.5c-0.6-1.9-1.6-2.2-2.1-2.7c-1.1-1.1-2.2-0.4-2.8-0.7
		c-0.6-0.3-1.4-0.4-1.1-2c0-0.2-0.1-0.3-0.3-0.2l-0.8,0.1l-0.9-0.1l-0.9,0.2c0,0-1.9,0-5.1,1c-0.7,0-1.6,0.8-2.8,0.8
		c-1.1-0.1-2.5,1.2-3.6,1.2c-0.9,0.1-3.3,3.3-5.3,3.5c-1.1,0.2,0,0.2-6.6,2.7c-3.7,1.4-2.7,1.1-5.8,2.8c0.7,0.2,3.5,0.1,6-0.1
		c4.2-0.4,4.3-0.4,5.3-0.5c4.3-0.6,11.1-1,13.7-1.6c1.9-0.4,3.3,0.8,5.1,0.2c1-0.3,2.2-0.3,2.8-0.4c0.9-0.1,1.1,0,1.8-0.1
		c0,0,2.8,0,3.4-0.4c0.9-0.5,1.2-0.7,1.4-1.1L204.2,365.6z"/>
	<path class="st1" d="M472.4,364.2c0.2-0.4,0.4-0.9,0.6-1.5c0.5-1.6,1.1-3.6,2-4.9c2-2.8,3.8-6,6.3-7.6c2.4-1.6,2.8-4.5,4-9.2
		c0.3-8.3,1.5-8.8,1.9-9.8c0.4-0.9,1-3.7,2.9-7.2c1.4-2.5,3.2-7.7,2.5-9.1c-1.2-2.6-2.3-4.8-3.5-9.2c-1.8-10.4-0.3-13.9,1.8-17.1
		c3.2-4.8,5.1-7.8,8.3-9.3c1.6-0.7,1.3-3.6,1.1-5.6c-0.8-5,0.7-4.6,1.6-7.3c0.8-2.7,1.6-6.2,1.6-7.1c0-0.9-0.5-3.2-0.7-4.4
		c-0.3-2.1-0.7-5.2-0.1-6.3c0.9-1.6,1.7-3.5,1.7-5.1c0-0.7,0.8-1.7,1.2-2.8c0.3-1.1,1-3.6,1-5.6c0-0.6,0.8-4.6,1.2-7.5
		c1-5.7,0.3-8.5-0.1-10.2c-0.6-2.3-1.9-3.4-1.8-4.2c0-1-0.2-4.3-0.4-6.3c-0.2-1.1,4.7-7.8,5.5-9.1c0.4-0.6-0.3-5.2-0.3-6.2
		c0-1-1.1-5.8-1.1-7c0-1.3,0.2-2.1,0.2-3.5c0-1.3-0.1-3.3-0.3-5.9c-0.2-4.6,0.2-9.4,0.2-10.6c0-1.1-1.7-1-4.9-2.7
		c-3.1-1.6-9.9-8.3-11-8.8c-1.1-0.5-6.6-1.5-9.5-1.5c-2.9,0-9,1.4-11.7,1.8c-2.7,0.4-6-0.8-7.6-1.2c-1.7-0.5-4.7-1.3-5.9-1.2
		c-3.7,0.4-9.7,0.5-12.2,0c-3-0.6-5.6-1.3-7.1-2.3c-1.3-0.9-1.8-0.6-3.3-2c-1.3-1.2-1.4-1.9-2.4-2c-0.9-0.2-9.7-0.9-11.4-2.5
		c-1.7-1.6-3.9-4.4-5.1-10.5c-1.2-5.9,0.9-10.1,3.1-11.3c3.5-1.8,8.2-4.7,10.7-4.9c1.1-0.1-1.4-4.6-2.7-8.9c-0.5-1.7-3-1.3-8.5-7.4
		c-2.5-2.8-6.8-8.2-7.9-10.1c-1.1-1.8,0.1-2.9-1-3c-1.5-0.1-6.5,0.1-14.3-1.3c-7.9-1.5-13-3.6-15.4-4.4c-2.3-0.7-7.9-2.6-9.6-3.2
		c-1.7-0.6-5.2-2.1-8.3-3.2c-3.1-1.1-4.4-3.5-6-3.6c-1.5-0.1-7.4,4-14.3,5c-7,1-9.3-0.8-13.1-1.3c-3.9-0.6-7.5-1.3-12.1-1.7
		c-4.6-0.3-17.9,2.2-20.2,2.4c-2.3,0.3-5.6,1.9-8.5,1.9c-1.8,0-12.1,3-13.9,3.4c-1.8,0.4-4.4-0.6-5.7-0.1c-1.9,0.6-5.1,1.3-6,1.5
		c-0.9,0.2-14.4,4.8-16.8,5.3c-2.7,0.6-6.6,1.8-9.7,3.1c-2.1,0.8-3.3,2.3-5,3.5c-5.8,4.1-7.4,4.3-10.2,5c-1.8,0.5-2.7,1.3-6.7,1.5
		c-4,0.2-5.1,1-5.1,1.7c-0.1,2.7-1,8.2,0.1,8.8c2.2,1.2,7.6,10.1,7.9,15.7c0.3,6.1-0.5,10.4-0.7,12.2c-0.2,1.6-0.4,2.6-1.2,3.5
		c-0.8,0.9-5.6,2.5-8.6,2.7c-2.9,0.2-4.5,0.3-15-2.4c-8.2-2.1-9-3-9.9-4.2c-0.9-1.2-3-2.2-4.4-2.9c-1.5-0.7-2.9-1.1-4.4-2.5
		c-1.3-1.2-7.8,1.9-16.6,2.6c-1.6,0.1-4.6,5.4-10,8.2c-4.3,2.2-6.3,3-7.7,4c-3.9,2.7-8.5,3.1-8,4.3c0.9,2.2-0.8,3.3-0.2,8.7
		c0.9,9.1-1.2,13.8-1.3,18.3c0,2.2,2.5,4.8,3.6,5.8c1.1,0.9,3.1,4.1,3.7,6.4c0.6,2.3-0.3,9.8-1.5,16.1c-1.2,6.5-1.9,13-1.7,15.2
		c0.2,1.6,2,4.6,2.9,6.4c1.1,2.1,3.3,9.6,3.4,13.5c0.1,3.5-0.9,7.9-0.8,8.6c0,0.7,1.2,3.5,2.3,5c1.4,1.8,4.2,8,5,9.6
		c1.1,2.1,1.3,4.7,1.3,4.7s-0.3,3.1-0.5,4.9c-0.2,1.8-0.8,8.3-1.4,16.4c-0.6,8-0.6,14.8,0.1,15.5c0.9,0.9,2.6,2.4,3.2,3.5
		c0.6,1.1,5.7,9.9,6.3,11.2c0.6,1.3,1.9,4.7,2.3,7.3c0.4,2.5,1.2,7.5,1.4,8.8c0.3,1.7,2.3,12.4,2.7,14.1c0.5,2.2,1.3,8.3,1.6,10.7
		c0.2,2.8,0.5,7.3,0.7,8.1l-0.1,0c3-1.7,2.1-1.5,5.8-2.8c6.6-2.4,5.4-2.5,6.6-2.6c2-0.3,4.4-3.5,5.3-3.5c1.2-0.1,2.5-1.3,3.6-1.3
		c1.1,0.1,2.1-0.8,2.8-0.8c3.2-1,5.1-1,5.1-1l5.3-1.1c2.2-0.3,55.5-19.3,65.4-23.3c9.9-3.9,0.9,2.9,13.8-1.9c12.9-4.7,21-9.2,21-9.2
		c3.3-1.1,19.2-9.3,19.2-9.3s3.5-1.8,6.6-1.6c3.7,0.3,6.4,0,7.5-0.2c1.1-0.2,1.9-0.6,5.1-0.4c3.2,0.1,4.4,0.5,7.2,0.1
		c2.3-0.4,2.7-2.2,3.9-2.5c1-0.2,2.4-1.1,2.9-1.7c1.6-1.9,3.2-1.4,3.9-2.7c1.2-2,2.8-1.4,6.3-4.2c0.7-0.6,4.2,0.2,5.4-0.4
		c1.2-0.6,6.2-4.5,7.3-5.2c1.1-0.7,1.8-2.3,3.2-2c3,0.7,3.5-0.3,5,1.1c2.2,2,7.1,5.5,7.3,6.1c0.9,2.4,4.7,2.5,4.8,5.8
		c0.1,1.7,1.6,1.5,1.4,4c0,0.7,4.9-0.2,6.9,1.6c1.4,1.2,6.7,6.3,7.6,6.7c1.5,0.7,3.9,2.9,4.9,3.3c2.2,1,10.7,5.9,13.3,9.2
		c1.2,1.5,3.3,1.1,4.5,2c3.3,2.4,12.2,7.8,13.3,9.9c1,1.9,9,7.5,9.3,8.6c0.4,1.5,4,3.3,4.2,4.6c0.2,1.2,5.2,4.6,7,6
		c2.4,1.7,1.8,1.1,4.2,3.9L472.4,364.2z"/>
	<path class="st2" d="M451.4,404.9c0.8-1.6,2-3.5,2.9-4.5c2.7-3,2.3-4.7,6.7-8c1.6-1.2,0.9-4.7,0.9-4.7s0-1.3,0.9-3.4
		c0.9-2,4.1-6,6.1-8.1c0.8-0.8,1.4-3.4,1.4-4.7c0-1.1-0.2-3.4,1.1-5.9v-0.4c-2.5-2.7-1.7-1.9-4-3.6c-1.8-1.4-6.9-4.8-7-6
		c-0.2-1.3-3.8-3.1-4.2-4.6c-0.3-1.1-8.3-6.8-9.3-8.6c-1.1-2.1-10-7.6-13.3-10c-1.3-0.9-3.4-0.5-4.5-2c-2.6-3.3-11.1-8.2-13.3-9.2
		c-1-0.5-3.4-2.6-4.9-3.3c-0.8-0.4-6.1-5.5-7.6-6.7c-2-1.8-6.9-0.9-6.9-1.6c0.2-2.6-1.4-2.3-1.4-4c-0.1-3.3-3.9-3.4-4.8-5.8
		c-0.2-0.5-5.2-4-7.3-6.1c-1.5-1.4-2-0.4-5-1.1c-1.4-0.3-2,1.3-3.2,2c-1.1,0.7-6.1,4.6-7.3,5.2c-1.2,0.6-4.7-0.1-5.4,0.4
		c-3.5,2.8-5.1,2.1-6.3,4.2c-0.8,1.3-2.3,0.7-3.9,2.7c-0.5,0.7-1.9,1.5-2.9,1.7c-1.2,0.3-1.6,2.1-3.9,2.5c-2.8,0.5-4.1,0.1-7.2,0
		c-3.1-0.1-4,0.2-5.1,0.4c-1.1,0.2-3.7,0.5-7.4,0.2c-3.1-0.2-6.6,1.6-6.6,1.6s-15.9,8.2-19.2,9.3l-1.6,0.7c-0.1,1.1-1.1,3.5-2.1,4
		c-1,0.6-2.2,0.2-2.7,1.1c-0.5,0.9,0.7,1.4,1,1.9c0.3,0.5,0.8,2.1-0.1,2.8c-1.1,0.8-1.6,2.1-2.2,2.8c-0.6,0.8-2.9,2-2.4,3.1
		c0.5,1.1,0.9,1.9,1.1,2.9c0.3,2.1-0.7,3.2-0.8,4c-0.1,0.9,0.9,0.8,0.2,2c-1,1.6-1.9,2-1.4,3.1c0.5,1.1-1.7,0.6-2.2,0.7
		c-0.6,0.2-1,0.9-1.2,1.8c-0.2,1,0.3,2.5-1.6,2.5c-1.8,0-4.5,0-5.2,0.6c-0.7,0.6,0.5,1.6-0.3,2.1c-0.9,0.6-1.4,0-2.1,0
		s-1.7,0.9-1.7,0.9s-0.6,0.9-0.9,1.5c-0.3,0.6-1.3,0.9-1.4,1.5c-0.1,0.7,0.6,1-0.1,2c-0.4,0.7-1.2,1-2,1.5c-0.8,0.5-1.2-0.3-1.7,0.9
		c-0.3,0.8-0.1,1.3-0.5,1.8c-0.6,0.8-2.1,1-3,1.4c-3.2,1.2-6.8,1.8-7.6,1.8c-0.7,0-4.9-0.1-5-1.6c-0.2-2.5-2.2-2.8-2.5-3.6
		c-0.7-1.7-3.1-2.6-3.1-3.9c0-1.7-6.3-1.2-6.5,0c-0.2,1,0,6.7-0.1,8c-0.1,2.3,0.1,5,0.5,16.3c0.3,7.5-0.1,9,0.9,16.7
		c0.6,4.6,1.5,6.7,2.1,7.9l1.8-0.5c-0.2,0,2.5-0.5,1.3-1.7c1.7-0.1,1.8-1.6-1-1.8c2-0.4,1.9-1.5,0.7-1.7c1.6-0.5,2.3-1.1,1.6-2
		c1.4,0.2,0.9-1,0.6-1.6c1,0.3,1.8-0.2,1.5-0.9c1.7,1.1,3-0.1,1-0.9c1.3-0.1,0.9-0.8-1.2-1c0.8,0.2,2.3-0.5,1.8-1.2
		c1,0.7,2.4-0.4,0.7-1.9c1.1-0.3,1.6-2.1,1.6-2.5c0.1,1.2-0.3,3.3,0.9,3c-0.7,0.7-0.5,1.4,1.6,1.5c-2,0.3-2.6,1.9,0,2.1
		c-1,0.7,1.7,0.6,2.9,1.1c-1.7,0.1-1.9,0.6-1.3,1c-1.8,0.7,0.2,1.3,2.8,1.6c-2.5,0.2-3.1,1.7-1.9,2.5c0.6,0.4,1.5,0.3,2.3,0
		c0.7-0.2,1.1-0.6,1.8-0.8c0.6-0.2,1.2-0.9-1-1.6c1.1,0.2,2.7,0.1,2.1-0.4c2.6-0.2,2.5-1.6-1.1-2.7c1,0.3,5-0.3,3-1.4
		c0.9-0.2,0.2-1.8-1.2-1.7c0.8-0.3,1.1-1.8-0.5-2.3c1.4,0,3-0.2,1.7-1c0.9,0.1,1.6-0.3,1.2-0.9c2,0.3,1.5-0.9,0.6-1.3
		c0.5-0.3,2-0.8,0.4-1.9c1.3,0.2,2.7,0,2.4-0.6c1.6-0.1,2.6-1.7-0.1-1.6c0.3-0.4,0.7-1-0.2-1.5c1.9,0,2.8-2.6,2-3.2
		c1.1,0.1,0.9-3,0.8-3.8c0.6,1.7,1,2.8,1.8,2.8c-1,0.7,0.1,1.9,1.2,2.2c-1,0.5,0.9,1.8,1.9,1.6c-1.7,0.9-1.8,2.6,2,3.8
		c-1.6-0.2-0.7,1.4,0,1.8c-0.6-0.4-2.7-0.4-2.1,0.5c-0.9,0.2-1.3,1.7,1.2,1c-0.3,0.6,1,1.2,2.7,1.4c-1.1,1-0.5,1.5,0.7,1.7
		c-0.5,0.4-1.2,0.8-0.2,1.5c-0.9,0.7-2,2.1,2.1,2.3c-1.8,0.8-0.2,1.2,0.9,1.7c-3.5-0.1-2.4,2.7,0.1,2.8c-1.4,0.5-0.5,1.8,1,2.3
		c-0.9,0.8,2.3,1.2,1.4-0.4c2-0.2,2.8-1.5,1.5-1.9c2.5-0.7,1-3.6,0.2-3.6c1.1-0.3,2.6-1.2,1.5-2c1.6,0.4,3.7-1.2-0.9-1.6
		c3.5-0.5,2.6-1.9,1-2.5c0.5-0.1,4.7,0.3,3-1.4c1.1-0.4-0.1-1.1-1.4-1c1-0.2,2.4-1.4,1.1-2c0.6,0,1.2-0.1,0.7-1.5
		c0.5,0.5,3.3,0.6,2.5-0.7c1-0.4,0.1-1.1-0.4-1.6c1.5-0.6,0.6-2.7,0.1-3.2c7.8-0.4,0.7-3.1,0-3.2c1.8,0,3.6-0.5,2.7-1.3
		c4,0.8,1.8-2.5,0.6-3c0.5-0.1,1.9-0.9,1.1-1.9c1.8,0.9,3,0.6,1.2-1.3c0.8-0.3,0.3-1.3-0.4-1.4c1.8,0.2,1.7-3.6,1.7-3.6
		s1.2,3.5,2.9,3.8c-1.6,0.5-1.3,3.1-0.1,3.3c-0.4,1.2,1.6,1,2.6,1.3c-2.9,0.1-2.4,1.8,0.1,2.2c-1.2,0.8,0.1,1.7,1.8,1.3
		c-1.6,0.6-1.6,1.7,0.5,2.9c-0.8,0.4-1.5,1.4-0.7,2.3c-1.2,0.1,0,1.7,2.4,2.2c-3.1,0.1-3.8,1.1,0.1,2.4c-0.7,0.2-0.4,1.1,1,1.5
		c-2.2,1-2,2.8,1.7,2.8c-1.4,0.5-0.1,0.8,1,1.7c-6.6,0.5-3.1,3.3-0.5,2.8c-2.3,1,1.4,0.8,2.7,1.4c-2.2,0.3-5,0.6-3.8,1.3
		c-1.3,0.3-1.4,2,3.9,1.9c-0.9,0.6,0.8,2.3,1.7,2.7c-6.2,0.9-3.3,1.8-0.1,2.5c-1,0.3-1.8,1.9,1.6,1.6c-2,0.5-3.8,1.5-2.2,2.5
		c1.6,0.9,1.4,1.2,20.5,2.9c15,1.4,17.6,1.7,21.1,2.2c4,0.6,1-1.9-0.2-3c6.1,1,3.1-1.9,2.2-2.7c0.8,0,2.7-0.4,1.2-1.4
		c3.3,0.4,2.2-1.8,1.6-2.4c4.3-1,2.1-2.3,0.7-3c0.8-0.2,1.5-0.6,0.9-1.4c2.7,1,2-0.4,0.9-1.1c1.1,0.1,2.7-1.7,1.1-2.6
		c1.8-0.4,1.3-1.2,0.8-1.4c4.6-0.2-0.7-2.4,0.6-1.8c2.1-0.6,3.5-2.9,1.8-3.5c1.6-0.3,2.8-1.6,1.2-2.5c0.9-0.5,1-1.9,0.6-2.7
		c3,0.6,2.1-2.1,1.2-2.4c2.2,0.4,2.4-4.7,2.4-4.7s0.2,3.4,2.4,3.6c-1.3,0.7,1.1,2.3,2.2,2.6c-1.9-0.1-2.2,1.2-1.3,1.7
		c-1.7,0.2,0.1,2.1,1.6,2.6c-2.9,0.6-0.5,1.7,0.2,2.3c-1.3,0.2-1.2,1.3,0.3,1.6c-1.5,0.7-0.3,2.3,0.5,2.5c0.8,0.2,1.6,0.1,2.3-0.6
		c1.2-1.2-0.3-2.1-1-2.4c2.8-0.5,2.6-2.7,1.7-3.1c2.1-0.2,1.5-2.6,0.7-3.2c1.7,0.1,1.8-2.1,1.9-3.4c0.5,1.6,0.3,3.1,1.4,3.7
		c-1.4,1.7,0.3,3.2,1.4,3c-0.8,0.4,0.2,1.9,1.1,2.2c-2.7,0.7,0.7,2.8,1.4,2.8c-1.5,1.5,1.1,2.6,1.1,2.6s-1.4,1.6-1.1,3
		c0.4,1.6,2.7,1.1,3.4,0.6c1.4-1.2-0.2-2.8-0.8-3.1c2.4-0.1,1.8-2.8,0.6-3.1c2.4,0,5.4-0.9,2-1.7c-0.4,0.1,2.7-1.1,0.6-1.7
		c3,0.1,1-2.7,1-2.7s3.1-0.3,1.5-1.6c1.7,0.4,2-1.3,2-1.3s-0.3,2.1,2.2,2.8c-1.6,0.8,0.5,0.9,0.9,1.1c-2.7,0.9-0.6,1.9,0.7,2.2
		c-1.5,0.4-1.3,1.5-0.2,2.1c-1.2,0.3,0.2,1.3,1.3,1.5c-1.8,1.4-1.1,3,0.4,3.2c-1.7,2.6,1,2.3,1.8,1.8c0.6-0.4,1-1,0.8-1.5
		c-0.2-0.5-0.7-0.4-1.3-0.7c2.6-0.7,1.3-2.3,0.5-2.7c3.3-0.3,2.4-2.4,1.8-2.9c0.8-0.1,1.7-0.4,1.2-1.1c0.8-0.2,0.4-1,0.8-2.1
		c0.1,1.4,0.4,2.6,1.2,2.9c-0.6,0.5,0.2,1,0.6,1.2c-2.3-0.4-0.6,1.4,0.2,1.5c-1,0.9-0.2,1.2,0.6,1.2c-0.7,0.7-0.3,1,0.5,1.2
		c-0.9,0.7,0.2,2.2,1.9,1.6c2.4-0.8,0-2.4-0.1-2.4c1.5,0,2.5-0.5,1.7-1.2c2.6,0.8,4.1-1.4,2-2.4c0.8-0.3,1.8-2.2-0.3-2.7
		c2.5,0.4,4-0.3,2.6-2.2c1.4,0.2,1.3-1.1,1.4-1.8c0.3,1.6,0.9,1.6,1.5,1.7c-0.8,1.1-0.1,1.6,0.4,1.8c-0.1,0.6,0.5,1.4,1.5,1.3
		c-0.6,0.5,0.1,1,0.7,1.1c-2.8,0.2-2,1.8-0.7,1.7c-0.2,0.9,0,1.3,1.5,1.1c-1,1.2,0.9,1.5,1.5,1.5c-2.3,0-2,2.8-0.4,2.2
		c-0.1,1.5,2.3,0.5,3.1,0.8c-1.7,1.6-1.3,2.9,2.4,2.3c-1.7,2.4,1.4,1.7,1.6,0.9c2.2,1.5,2.9-0.7,1.5-1.4c1-0.2,0.7-1-0.7-1.5
		c1.9,0,1.4-0.5,1.2-1.1c1.5,0.5,2.1-0.4,1.5-1.4c1.6,0.3,1.6-1.6,1.6-1.6s0.2,1.2,1.4,0.9c-0.6,1.3,0.5,1.7,2,1.3
		c-0.6,1.2,0.1,1.7,1.1,1.8c-0.1,0.5,0.1,1.3,0.7,1.7L451.4,404.9z"/>
	<path class="st0" d="M471.2,366.2c-0.7-0.1-1.6-0.3-2.9-0.6c-2.9-0.8-4-2.1-10.9-2.8c-1.4-0.1-5.6-5-11.9-7.4
		c-1.7-0.6-12.6-7.3-14-7.4c-4.7-0.6-6-2.2-5.4-0.7c0.4,0.8,2.1,1.9,2.2,4.8c0,0.9,1.3,4.1,1.3,4.1c-0.1,1.1-15.3-3.8-19-9.4
		c-4.9-7.6-5.9-9.4-8.5-11.1c-2.7-1.7-5-3.4-6-5.6c-0.2-0.5-0.1-1.5-1-1.6c-1.5-0.1-2.9,0.2-3.8-1.6c-0.5-1.1-1.6,0.6-2.4,1.2
		c-0.6,0.5-2,0.2-1.7,1.2c0.2,0.8-1,1.3-0.5,1.8c2.6,2.5,1.3,4.6,2.5,5.1c0.4,0.2,1,1.7,0.9,2.8c-0.2,2.3,1.3,2.8,1.4,4
		c0.1,0.9,0.7,3.1,0,3c-1.2-0.2-2.9-1.4-4.3-2.7c-1.2-1.2-2.2-1.2-2.5-2.2c-0.1-0.6-1.2-1.2-2.7-3.8c-0.4-0.8,2.2,3.6,3,6.5
		c0.6,2.1,1.6,4.4,2.7,5.9c1,1.4-0.1,3.8-0.1,3.8c-0.4,0-3.3-1.6-3.8-2.6c-1.2-2.4-5-2.7-8-8.2c-1.1-2.1,0.1-6.2,0.1-7.4
		c0-1.8-1.9-2.7-3.6-5.4c-1.5-2.4,0.4-8.3,0-10.2c-0.3-1.5,0.5-4-0.3-4c-1.3,0-5.1,3.7-9.7,6.1c-0.9,0.4-2.6,1.9-3.1,2
		c-3.8,1.2-5.3,2.9-7.1,6.5c-2.1,4.4-3.6,6.7-4.4,8.2c-0.9,1.6,0.3,2-1,3.1c-0.9,0.7-8.3,8-9.3,9.1c-3.9,3.9-4.1,2.4-4,1.9
		c0.5-1.9,4.9-7,7.6-11.3c1.7-2.8-1.7,0.1-3-0.6c-2.3-1.3,0.1-4,0.5-4.4c1-1,0.2-1.7,0.9-2.5c1.6-1.8,0.6-2,1.2-2.5
		c1-0.8,0.5-0.9,0-0.6c-1.4,0.7-5.3,3.1-6.1,3.9c-1.2,1.2-10.6,6.9-8.6,4.1c0.4-0.6,1.3-1.6,2.2-2.3c1.1-1,1.8-2.5,1.8-3.5
		c0-0.8-0.1-1.6,0.4-2c4.8-4.2-0.7-0.9-1.2-0.4c-1.7,1.7-6.5,4.7-8.7,5.9c-1.3,0.8-5.3,2.6-5.7,3.6c-0.4,1.1-0.8,1.9-1.6,1.6
		c-1.9-0.8-2.8-0.3-4.4,1c-1.5,1.2-2.3-0.2-3.1-0.1c-2.2,0.4-3.5-0.6-4.4-0.3c-1.7,0.5-8.4,5.2-10.3,4.7l-1,0.2l-0.4-0.6l-0.1-0.3
		c0.1-0.2,1.2-2.1,0.9-4c-0.2-1-0.5-1.8-1-2.9c-0.5-1.1,1.8-2.3,2.4-3.1c0.6-0.8,1-2.1,2.1-2.9c0.9-0.7,0.4-2,0.1-2.5
		c-0.3-0.5-1.4-1.3-1-2.2c0.5-0.9,1.8-0.5,2.8-1.1c1-0.6,1.9-3,2-4.1l1.4-0.6c3.3-1.1,19.2-9.3,19.2-9.3s3.5-1.8,6.6-1.6
		c3.7,0.3,6.4,0,7.5-0.2c1.1-0.2,1.9-0.6,5.1-0.4c3.2,0.1,4.4,0.5,7.2,0.1c2.3-0.4,2.7-2.2,3.9-2.5c1-0.2,2.4-1.1,2.9-1.7
		c1.6-1.9,3.2-1.4,3.9-2.7c1.2-2,2.8-1.4,6.3-4.2c0.7-0.6,4.2,0.2,5.4-0.4c1.2-0.6,6.2-4.5,7.3-5.2c1.1-0.7,1.8-2.3,3.2-2
		c3,0.7,3.5-0.3,5,1.1c2.2,2,7.1,5.5,7.3,6.1c0.9,2.4,4.7,2.5,4.8,5.8c0.1,1.7,1.6,1.5,1.5,4c-0.1,0.7,4.8-0.2,6.9,1.6
		c1.4,1.2,6.7,6.3,7.6,6.7c1.5,0.7,3.9,2.9,4.9,3.3c2.2,1,10.7,5.9,13.3,9.2c1.2,1.5,3.3,1.1,4.5,2c3.3,2.4,12.2,7.8,13.3,9.9
		c1,1.9,9,7.5,9.3,8.6c0.4,1.5,4,3.3,4.2,4.6c0.2,1.2,5.2,4.6,7,6c2.1,1.5,2.5,1.9,4.3,3.8L471.2,366.2z M352.1,320.5
		c-1.7,0.5-6.3,4.1-7.9,6.2c-0.9,1.2-0.4,2.5-0.1,2.8c0.4,0.2,0.7,0.3,1.1-0.1c0.4-0.4,0.9-2,1.9-2.7c1-0.6,2.4-2.8,3.2-3.5
		C351.2,322.5,354,320,352.1,320.5 M380.5,318.9c0.1,0.9,0.4,1.1,0.4,1.7c0,0.6-0.8,0.3-0.8,1c0,0.6-0.2,2,1.1,2.3
		c1.4,0.2,1.5,0.4,2.5,0.1c1-0.2,3,0.5,3.5-0.2c0.5-0.7-0.5-1.7-1.2-2c-0.7-0.4-0.9-1.7-1.3-2.7c-0.5-1-2-1.5-3.5-1.5
		C380.3,317.6,380.4,318,380.5,318.9 M431.7,341.5c0.4,0.5,2.3,2.7,3,3.3c0.8,0.6,1.6,1.5,2.1,0.6c0.5-0.9-1.4-1.3-2.8-2.6
		c-1.4-1.4-0.6-2-2.1-2.7C430.5,339.4,431.3,341,431.7,341.5 M404.6,325.9c0.4,0.9,3.4,4.5,4.4,5.6c1,1,2.4,2.3,3,3.3
		c0.6,1,1.4,0.5,1.5-0.1c0.1-0.6-2.4-3-1.5-3c0.9,0,1.6,2.2,2.8,3.2c1.1,1,2.2,2.5,2.7,3.5c0.5,1,1.5,2,3,3.4
		c1.5,1.4,1.6,2.5,1.6,2.5s0.1-1.3,0-2.8c-0.1-1.5-2.6-2.6-4.2-4.1c-1.2-1-0.6-2.3-1.6-3.5c-1-1.3-4.4-6.9-5.3-7.7
		c-0.9-0.8-1.4,0.9-2,1.7c-0.6,0.8-2.1-2.8-2.9-3.9c-0.7-1.1-2-4.1-3-3.3C402.4,321.1,404.2,325,404.6,325.9 M401.1,331.5
		c1.6,3.3,4.5,4,9.4,6.3c1.3,0.6-7.6-6.6-9.9-9.2c-2-2.2-4.5-6-6.3-6.1C392.3,322.4,400.2,329.7,401.1,331.5 M337.8,327.2
		c-0.7,0-1.1,0.3-2.1,1c-1,0.7-1.6,0.9-1.2,1.4c0.4,0.5,0.9,0.8,1.4,0.2c0.6-0.5,1.5-1.8,2.1-2.1
		C338.5,327.5,338.4,327.2,337.8,327.2 M349.3,317.1c-1.5,0.4-6.4,3.4-8.1,4.2c-1.7,0.8-3,1.8-2.9,2.2c0.1,0.4,0.5,0.6,2,0.7
		c1.5,0.1,1.6-0.1,2.9-1.1c1.3-1.1,3.4-2.8,4.3-3.7C348.5,318.4,349.7,316.9,349.3,317.1 M335.9,316.7c-2.7,0-4.7,1-8.2,2.7
		c-1.6,0.8-11.9,8.2-16.8,10.2c-3.5,1.5-4.8,5.3-4.8,6.1c0.1,1.3,3.9,0.3,7.3-0.6c4.3-1.2,4.6-1.8,4.8-2.8c0.1-0.7,2.7-2.2,4.9-4.4
		c1.7-1.8-0.3-2.3,1.3-3.3c1.6-1,5.2-4.7,6.7-5.3C332.6,318.7,336.6,316.7,335.9,316.7"/>
	<path class="st3" d="M201.1,303.1c0.7-0.2,1.6-0.6,2.1-1.1c0.5-0.6,1.2-0.7,1.1-1.4c-0.1-0.7,0-1.4,0-1.8c0-1.1-0.8-0.8-1.4-0.5
		c-0.6,0.3-0.7,0.8-1.3,1.2c-0.5,0.4-1.2,1.1-2.2,1.3c-1.1,0.3-1.6,0.7-1.2,1.3c0.3,0.4,0.1,1,0.9,1.3
		C199.9,303.7,200.6,303.2,201.1,303.1 M219.4,341.2c0.1,1.2-0.1,3,0.4,3c0.7,0.1,0.7,0.5,1.5,0.6c0.4,0.1,0.2-0.6,0.7-0.9
		c0.5-0.3,0.9,0.8,1.6-1c0.3-0.8,0.7-0.8,1.1-1.3c0.3-0.5,0.1-1.6,0-2.1c-0.1-0.5-0.4-1.6-0.9-2c-1.7-1-3-0.5-3.1,0.5
		c-0.1,0.6-0.7,0.6-0.8,1.2C219.8,340.2,219.3,340.2,219.4,341.2 M237.8,319.2c-0.2,0.3-0.2,10.6-0.5,12.6c-0.1,1,0.2,2,0.9,2
		c0.6,0,1.1-0.6,1.1-0.6s0.4-0.6,0.4,0.2c0,0.8-0.2,0.8,0.1,1c0.4,0.3,1.1,0.3,1.6-0.9c0.5-1.2-0.1-2.7,0.9-2.6
		c2.4,0.3,1.4-1.9,1.8-3c0.4-1.1,0.5-4.9,0.4-5.4c-0.1-0.3-1.5,0.2-1.6-0.4c-0.1-1.3,0.7-2.9-0.7-3c-1,0-0.5,0.9-1.1,1
		c-0.6,0.1-0.5,0.1-1-0.1c-0.4-0.6-0.6-0.7-1.1-0.9C238.4,319.1,238,319,237.8,319.2 M216.5,310.5c-0.1,1.2,0.4,1.9,1.2,2.1
		c0.8,0.2,1-0.1,1.7,0.2c0.9,0.5,1.2,0.6,2.5,0.7c1.3,0.1,1.6-0.1,1.6-0.6c0-0.5,0.3-1.4,0.6-1.8c0.3-0.4,0.5-1.5-0.1-1.7
		c-0.6-0.2-1.5-0.1-2.4-0.6c-0.9-0.5-1-1-2.1-1c-1,0-1.2,0.7-1.8,1.2C217.1,309.7,216.6,309.4,216.5,310.5 M237.9,309.1
		c-0.4,0.8,0.4,0.8,1,1.5c0.3,0.4-0.8,0.6-0.2,1.5c0.5,0.8,1.4,0.6,2.7,0.8c1.5,0.3,0.4,0.8,1.2,1.8c0.6,0.7,1.4,0.8,2.9,1.2
		c1.2,0.3,0.6,1.5,2.4,1.3c1-0.1,3.6-0.4,4.2-1.4c0.6-0.9,0-1.4-1-2.3c-0.3-0.3,0.5-1.4-0.2-2.6c-0.7-1.2-2.8-1.6-3.5-2.2
		c-0.7-0.6-1.5-1.7-3-2.2c-1.2-0.3-0.1-0.8-2-0.9c-1,0-2.5,0.9-3.9,1.1C237.9,306.8,238.5,308.1,237.9,309.1 M237,293.7
		c-0.3,0.9,0.7,1.4,2,4.1c0.4,0.8,1.3,0.3,3,1.1c1.3,0.6,2,0.4,3,0.8c1,0.4,1.2,1.2,1.9,1.7c0.7,0.5,1,0.2,1.6,0.5
		c0.6,0.3,0.9,1.1,1.9,1.7c0.8,0.5,0.6,1,1.6,1.2c0.7,0.1,0.6-0.5,1.1-0.3c0.8,0.3,1.3,0.3,1.7-0.1c0.4-0.4,0-1,0-1.8
		c0-0.5,0.8-0.1,0.9-0.7c0.1-0.9-0.9-1.6-1.1-2c-0.2-0.4,0-0.9-0.6-2.1c-0.6-1.2-0.7-0.4-1.5-1.8c-0.6-1-0.4-1.8-1.5-3
		c-1.7-1.7-3.3-2-6.5-2.7c-2.8-0.6-5.8-1.3-6.8-0.5C236.8,290.8,237.6,291.9,237,293.7 M251.6,284.1c1.6-0.7,0.7-2.2,0.2-2.2
		c-0.5-0.1-1.8-0.4-2.7-0.4c-0.7,0-1.1-0.7-3.2-0.8c-2.1-0.1-5-0.3-6.9-0.2c-0.9,0.1-1,1.1-0.8,1.3c1.4,1.3,0.1,2-0.2,2.4
		c-0.4,0.4-0.2,0.9,0.4,1.4c0.6,0.6,1.6,0.5,2.2,0.8c0.6,0.2,1.2,0.7,2.1,0.8c0.9,0.1,3.3,0.6,3.9,0.7c0.6,0.1,1.1,0.2,1.5-0.4
		c0.3-0.5,1.2-1.1,1.9-1.3C250.8,286,250.7,284.5,251.6,284.1 M204.8,255.9c-0.1,0.5,0.4,0.8,1.5,0.8c1.1,0.1,2.2,0.2,2.6-0.3
		c0.4-0.4,0.8-0.6,1.3-0.6c0.5,0,1.8,0,1.5-1c-0.2-0.9-1.8-1.1-3.5-0.9c-0.8,0.1-2.3-0.9-3.4-0.3C203.8,254.2,205,254.9,204.8,255.9
		 M237.7,264.1c-0.4,0.6,0.5,1.2,0.9,1.3c0.7,0.1,1.3-0.4,1.8-0.8c0.4-0.3,0.9-0.7,1.5-1.2c0.6-0.4,0-1.2-0.6-1.2
		c-0.5,0-1.8,0.7-1.8,0.7S238.2,263.4,237.7,264.1 M244.7,259.4c0.5,0.1,1.3,0,2,0c0.9,0,1.6,0.2,3.2-0.1c1.1-0.3,1.2-0.7,1.3-1.4
		c0.2-0.7-0.7-0.9-1.5-1.3c-0.9-0.4-2.3,0-3.4,0.2c-1.1,0.2-2.2,1.4-2.2,1.4S244.1,259.3,244.7,259.4 M222.3,250.2
		c0.1-0.8,0-1.7-1.1-2c-1.2-0.4-3-0.4-3.8-0.3c-0.8,0.1-3.1,0.5-3.9,0.8c-0.8,0.3,0.6,1.4-1.8,0.9c-0.3-0.1-0.9,0.5-0.1,1.2
		c0.9,0.7,1.5,0.6,1.9,0.6c0.3,0,1.3-0.1,1.8,0c0.5,0.1,0.4,0.3,1.6,0.4c1.2,0.1,1.5-0.4,3-0.4C221.1,251.3,222.2,250.8,222.3,250.2
		 M236.3,252.5c0.1-0.9-0.5,4.5-0.1,5.3c0.4,1,1.1,0.9,1.4,0.4c0.4-0.6,0.5-0.8,1.2-1.1c0.7-0.3,0-2.3,0.4-3
		c0.4-0.7,0.7-4.5,0.3-6.6c-0.1-0.9-0.1-1.6-0.6-2.4c-0.7-1.3-1.4-2-2-1.4c-0.6,0.6-0.1,0.8-0.6,2.4
		C236.1,247,236.2,253.4,236.3,252.5 M248.7,236.2c-0.1,0.8,1.8,0.9,1.3,0.8c-0.5-0.1,1.3,0.6,1.7,0.2c0.9-0.9,1.6-0.9,2.1-2
		c0.3-0.7,0.6-1.2,0.9-1.6c0.4-0.4-0.2-1.1-0.7-1.3c-0.5-0.1-0.8,0.1-1.7,0.5c-0.9,0.4-1.6,1.2-2.2,1.6
		C249.5,234.9,248.8,235.5,248.7,236.2 M248.3,229.2c-0.1,0.7,0.7,1.1,2.1,0.7c1.1-0.3,1.7-1.2,2.4-1.8c0.7-0.6,0.9-1.2,0.8-2.1
		c-0.2-0.9-2.7,0.2-2.2-0.1c0.5-0.3-1.5,1.2-1.8,1.5C248.9,227.9,248.4,228.6,248.3,229.2 M246.5,222.6c0.5,0,0.7-0.4,1.1-1
		c0.4-0.6,0.7-1.7,0.6-2.2c-0.1-0.5,0.8-1.4,0.4-2c-0.4-0.5-1.8,1.4-2.2,1.9c-0.4,0.5-1.2,2-1.1,2.5
		C245.5,222.4,246,222.6,246.5,222.6 M235.9,222.3c-0.3,2.6,0.8,3.6,0.6,4.8c-0.2,1.2-0.2,1.9,0.4,3.2c0.3,0.7-0.6,5.3,0.2,5.8
		c0.8,0.4,1.2-0.9,1.8-1.6c0.6-0.7,1.4-5.2,1.7-6.2c0.5-1.6,1-4.6,1.2-6c0.2-1.4-0.1-4.2-0.9-6.7c-0.4-1.4-1.1-1.8-1.7-2.3
		c-0.6-0.5-1.2-0.3-1.4,0.1c-0.2,0.4-0.3-0.3-0.4-0.4c-0.8-0.4-1-0.1-1.3,0.5c-0.2,0.4-0.2,2.5-0.7,3.4
		C234.9,218.1,236.2,219.2,235.9,222.3 M223.1,205.3c0.6-0.1,0.7-1.6,0.7-2.4c0.1-0.6,0.1-1.7-0.5-2.5c-0.6-0.9-1.2-0.1-1.6-0.1
		l-0.3,2c0.2,0.3,0.6,1,0.6,1.7C222.2,204.6,222.5,205.4,223.1,205.3 M225.9,198.5c0.3,0.4,1.1-0.3,1.7-0.3c0.6,0,0.9-0.3,1.2-1.2
		c0.2-0.7,0.1-1.7-0.1-2.4c-0.2-0.7-1.1-0.1-1.5-0.4c-0.4-0.3-0.9-1.1-1.3-0.8c-0.4,0.4-0.8,1.5-0.8,2.1
		C224.9,196,225.4,197.9,225.9,198.5 M225.1,186.5c-0.2,0.9-0.5,1-0.6,2.1c-0.1,1,1.3,2.3,1.4,2.6c0.2,0.3,2.3,0.6,2.4,0
		c0.2-0.9-0.2-1.4,0.1-3c0.2-1.3-1.1-1.8-1.5-2.6c-0.4-0.8-0.9-1.1-1.3-0.6C225.1,185.4,225.2,186,225.1,186.5 M233.9,180.8
		c0,0.7-0.2,2.3-0.2,2.3s0.1,1.5-0.3,2c-0.4,0.5-0.1,0.9,0.2,1.3c0.4,0.4,0.5,0.3,1,0c0.5-0.3,0.3,0.6,0.5,1l1.4-0.3
		c0.1-0.4,0.5-1.7,0.7-2.7c0.2-1.3,0.3-2.5,0-4.8c-0.2-2.4-2.5-1-2.5-1S233.9,179.1,233.9,180.8 M212.8,229.8
		c0.6,1.5,0.9,1.1,2.3,2.1c1,0.7-0.5,1.5,0.7,2.5c1,0.7,0.3,1.3,3.8,1.5c1.9,0,1.4-0.5,3.2-1.4c1.5-0.7-1.1-1.8-0.7-2.9
		c0.1-0.4-1.1-1.8-3-2c-1.4-0.1-1.4-1.5-2.2-1.9c-0.7-0.4-1.4-0.2-2.4-0.4c-1.1-0.2-1.8-0.7-2.3,0.2
		C211.9,228.1,212.4,228.9,212.8,229.8 M434.8,428.7c-0.3,0.6-0.6,1.1-0.8,1.8c-0.6,1.8-2.3,12.1-2.4,14.5c-0.2,2.4-0.8,3.5-2,4.8
		c-1.3,1.3-5,4.2-5.2,5.9c-0.2,1.6,0.4,7.4-0.7,8.5c-1.4,1.3-6.6,8-8.7,10c-2,2.1-5.4,5.8-5.4,5.8l-1.8,2.7c0.8,1.2,2.1,5-0.5,7.6
		c-2.4,2.4-6.9,8.6-13.3,13.1c-3.4,2.4-7.1,4.9-8,5.9c-1.2,1.5-0.5,4.5-1.4,5.1c-1.7,0.9-4.6,4.4-5.9,4.9c-1.6,0.7-1.4,1.8-1.9,3.1
		c-0.5,1.5-1.4,1.8-1.8,3.2c-0.6,2.3-4.2,7.7-6.5,11.4c-1.5,2.4-3.8,2.9-6.4,4.6c-4.7,3.1-3.8,1.6-11.5,9c-2.7,1.9-6.2,5.9-7.3,6.8
		c-1.1,0.9-4.4,5.5-6.5,7.6c-2.2,2.2-4.3,3.4-14,5.4c-2.3,0.5-4.4-1-8.4-1c-1.9,0-7.2-2.9-9.1-4.1c-1.5-0.9-4-2.2-5.1-2.8
		c-4.4-3-6.6-3.8-8-4.4c-1.5-0.7-3.2-1.5-4.5-2.3c-1.8-1.2-4.3-4-5.3-5c-4.2-3.9-12-8.8-13-10.1c-1-1.4-2.9-4.1-4.4-5.8
		c-1.4-1.8-2-1.2-2.9-2.5c-0.4-0.7-0.3-6.1-0.5-7.2c-0.2-1.1-0.5-2.4-4.3-4.6c-3.9-2.2-5.6-2.4-6.8-4.3c-1.4-2.2-6.8-7.9-7-9
		c-0.3-1.4-0.8-4.8-1.1-6c-0.2-1.2-0.6-3.1-3.3-4.9c-0.9-0.6-0.9-1.6-1.4-2.2c-0.4-0.6-1.7-1-2.3-1.1c-0.6-0.1-0.7-1.4-0.9-3.1
		c-1-5.4-2.7-7.3-4.7-9.7c-2.1-2.4-4.4-4.5-5.2-4.8c-1.6-0.7-3.6-2.5-4.5-3.5c-0.7-0.8-1.4-1.7-1.4-3c0-1.3-1.4-6.1-2.4-7.9
		c-1.5-2.8-2.7-6.3-5.8-10.4c-3.7-4.9-5.7-5.9-7-7.2c-0.7-0.8-0.8-2.8-0.6-4.1c0.3-1.6-0.9-2.8-2.6-4.7c-1.7-1.8-6.3-6.3-7-7.3
		c-0.5-0.7-1.9-1.4-3.1-1.6c-1-0.2-2.1-2.6-2.8-3.1c-0.7-0.5-0.9-1.5-0.9-2.8c0-0.1-0.1-0.5-0.4-1.1c-0.2-0.4-0.4-1-0.7-1.6
		l-0.2-0.3c0.4-0.2,0.9-0.4,1.2-0.5c0.8-0.3,0.7-0.6-0.3-0.8c0.7-0.2,1.7-0.9,0.9-1.3c0.8-0.4,1.7-1.5,0.9-1.7
		c0.6-0.5,0.9-2.5,0.9-2.5s0.2,1.2,1,2c-0.8,0,0.1,0.4,0.5,0.8c-0.5,0.3,0.3,0.5,0.6,0.9c-0.6,0.3-0.3,0.6,0.4,0.8
		c-0.5,0.4,0.3,0.5,0.9,0.3c-0.3,0.5-0.7,0.6-0.7,0.6s3.6-0.4,5.4-1.7c1.9-1.2,1.1-1.7-0.3-2.4c1.3-0.5,4.8-1.5,3.7-2.5
		c0.9-0.8-0.3-1.2-1.4-1.4c4.1-0.9,4.4-1.6,3.9-1.9c2.2-1.2-0.5-1.8-1.2-2.2c2.8,0.5,2.1-0.3,1.8-1.1c2.4,1.1,2.5-1.3,1.5-2
		c1-0.2,1.1-1.5-0.3-2.3c2.3,0.3,3.6-0.1,1.8-1.5c1.2-0.4,1.3-1,0.9-1.5c1.2-0.7,0.4-1.6-0.1-1.8c1.2-0.6,1-2.1,0.4-2.3
		c1.1-1.3,1.5-4.2,1.5-4.2s0,2.2,1.6,3.3c-0.6,0.6-0.1,1.8,0.7,1.8c-0.9,1.5-0.3,1.9,1.3,2.1c-0.6,0.8-1.1,1.5,1.1,1.6
		c-1.8,1.2-1.1,2,0.6,1.8c-1.8,0.6-0.6,1.8,1.3,1.4c-1.4,1.1-1.4,2.3,0.7,2c-2,0.9-2.2,2.4,0.9,2.3c-1,0-2,2.8,1.9,3.6
		c0.3-3.1,1.6-24.7,1.7-28.6c0.2-4.3-0.1-7.3-0.1-7.3s-0.3-0.2-2.1-0.1c-1.8,0.2-2.6,0.7-5.4-0.2c-2.7-0.9-3.2-0.3-5.2-0.2
		c-1.7,0.1-2.7-0.2-4.7,0.6c-2.1,0.8-4.3-0.2-5.2-1c-0.9-0.8,0-2.4,1.4-2.3c3.5,0.1,4.1-1,4.5-1.6c0.9-1.8-1.4-1.5-1.6-2.4
		c-0.6-1.9-1.6-2.2-2-2.7c-1.1-1.1-2.2-0.5-2.8-0.7c-0.6-0.3-1.4-0.4-1.1-2c0.1-0.5-0.3,0-1.5-0.1c-1.3-0.1-0.5-0.2-1.6-0.3
		c-1.1-0.2-0.4-1.3-1.8-1.4c-1.1-0.1-1.2,0.5-2.8,0.7c-0.7,0.1-3.1-0.2-4-0.6c-0.9-0.4-2.1,0.1-2.8-0.5c-0.7-0.6-0.5-1.6-0.7-2.9
		c-0.1-0.7,1-1.8,1.6-2.7c0.6-0.9,1.6-1.3,4.2-0.9c1.2,0.2,3.5,0.3,5.1,0.2c2.7-0.3,1.5,0.8,3.4,0.8c2-0.1,4.4-1.2,4.6-2.3
		c0.2-1.1,0.2-2.2-0.5-2.5c-0.7-0.3-1.8-0.3-2.5-1.2c-0.7-0.9-0.5-1.9-0.4-2.8c0.1-0.9,1.2-1.9,2.3-2.6c2.3-1.5,1.1-2.3,1.8-2.6
		c0.7-0.3,1.7-0.6,3.1-0.7c2.4-0.1,3.4,0.8,5.4,0.8c2,0.1,4,0.6,5.7,0.5c4.1-0.2,0.1-2.1,2.4-1.9c1.1,0.1,2.7-0.3,3.9-0.8
		c1.9-0.9,1.9-2.7,3-3.6c0.5-0.5,0.4-2.6,0.4-3.5c-0.1-0.9-1-2.3-2.3-2.6c-1.3-0.2-2.6-0.1-4.2-0.3c-1.5-0.2-2,0.1-2.8,0.3
		c-0.8,0.3-0.8,0.3-1.7,0.9c-0.9,0.6-1.5,0.6-2.3,1.4c-0.8,0.8-0.2,2-1.3,2.6c-2.2,1.2-1.9-0.1-3,0.1c-1,0.2-1.9,0.1-2.7-0.1
		c-1.1-0.3-2.7-0.6-2.8-1.5c-0.1-0.9-0.7-1.4-1.4-1.7c-0.6-0.3-0.7-0.9-1.5-0.9c-0.8,0-1.1,0-2.1,0.7c-1,0.8-0.5,1.8-0.9,2.4
		c-0.9,1.3-0.7,2.3-1.5,2.4c-1.1,0.1-0.1-1.1-1.8-0.6c-1,0.3-0.8,1-2,1.4c-1.1,0.3-1.3,0.6-2.7,1.2c-1.6,0.7-2-0.1-3.3-0.5
		c-1.3-0.4-1.8-1.2-3.4-1.1c-1.2,0.1-0.5-2.2,0.8-3.6c1.1-1.3,2.7-0.6,3.6-1.7c2-2.5,2-1.1,2.4-3c0.3-1.4,1.9-0.7,1.7-2
		c-0.3-1.5-1.3-0.7-1.5-2.3c-0.1-1,0.2-2.4,1.6-2.6c1.4-0.3,3.3,0.6,5-0.6c1.3-0.8,2.8-1.2,3.6-2c0.7-0.8,0.4-2,0.9-2.3
		c0.5-0.3,1.9,0.2,1.5-1.9c-0.3-1.5-2-0.4-3.2-1.5c-0.8-0.7-0.5-1.3-1.2-1.4c-2-0.4-1,1.1-3.7-0.5c-1.2-0.7-0.2-1.1-1.2-1.7
		c-1-0.6-1.8,0-3.7-0.9c-1.6-0.8-3.3,0.6-3.7-0.5c-0.3-0.8-1.9-1.6-2.2-1.9c-0.2-0.3-0.6-1-0.4-2c0.1-1-0.1-2.2,0.8-2.6
		c0.9-0.4,1.5-1.3,2.1-2c1.1-1.2,0.4-2.6,1.1-3.2c0.7-0.6,2.1-3.5-1.5-1.5c-1.2,0.6-2.8-0.1-3.1,0.5c-0.3,0.5-2.9,0.5-2.9-0.6
		c0-1.4,2.5-1.3,1.4-2.9c-1.1-1.5-2.1-0.6-2.2-2.2c0-0.8,1.9-2.1,3.1-2.5c1.2-0.4,2.9-1.5,5.4-0.3c5.9,2.8,4.9,0.5,7,0.6
		c2.1,0.1,1.5,1.2,5.7,1.4c1.8,0.1,4.4,0.2,4.4-0.9c0-1.1-1.5-1.2-2.5-1.4c-1-0.2-2.3,0.9-3.2-0.5c-0.5-0.8,1.4-1.2,1.2-2.5
		c-0.1-1.3-2.1,0-2.3-1c-0.2-1.5,1.1-2.8-0.4-3.8c-0.5-0.4-1.7-0.7-2.7-0.2c-1,0.6-1.7,1.3-3.4-0.2c-1.6-1.4,1-2.2,0.2-3.3
		c-0.7-1.1-3.1,0.6-2.5-1.1c0.4-0.9,1.7-2.7,3.2-2.5c6.9,0.9,9.1-1.4,10.5-1.2c2.1,0.3,2,1.1,4.4,1c1.7-0.1,2.5-1.9,5.6-1.9
		c5.1-0.1,5.2,0.8,7,1.3c6.3,1.9,3.9-1.5,5.3-1.4c1.9,0.1,2.1-1.1,2.1-1.7c0-0.7-1.1-1-2.5-1.3c-1.4-0.3-1.2-1.4-4.3-0.8
		c-3.9,0.9-6.3,0.2-7.6,1.2c-2,1.7-4.1,1.3-5-0.3c-0.8-1.4-3.3-2.2-3.9-2c-2.2,0.6-3.3,0.4-3.9-0.7c-0.7-1-1.8-2.3-3.2-2.7
		c-1.3-0.4-2.9,0.9-3.8-1.4c-0.6-1.8,1.4-2,2.2-2.9c0.7-1,0-1.9,0.7-2.4c1.3-1,3.6-2.2,3.2-3c-1.1-2.4-1.8,0.2-2.5-0.3
		c-2.2-1.6-2.7,0.2-3.8-0.3c-1.2-0.6,1.3-1.6,1.5-2.7c0.2-1.1-0.6-2.2,1.3-3.7c2.9-2.3,0.7-2.4,0.6-3.2c-0.1-0.8,0.5-1.5,0.2-2.1
		c-0.4-0.7-1.2-0.9-1.3-1.6c-0.2-0.7,0.8-2.5,1.5-3c0.7-0.5,0.1-1.2,3.6-2.1c3.4-0.9,1.3-2.2,1.3-2.9c0-0.7,0.4-1.6,1-1.8
		c0.6-0.2,1.1,0,2.1-0.1c1-0.1,1.5-0.4,2.7-0.3c1.2,0.1,1,0.8,2,0.9c1,0.2,1.6-0.1,2.2,0c1.6,0.1,2.1,1,3.4,0.5
		c1.3-0.5,1.4-1.5,1.3-2.4c-0.1-1-1.5-0.3-1.3-1.2c0.1-1,1-0.5,0.8-2.4c0-0.9-0.1-1.6,1.2-1.9c1.3-0.3,1.4-1,2.3-0.9
		c0.9,0.1,2.2,0.9,3.5,1c0.9,0.1,2.9-0.2,3.1,0.8c0.4,1.3,0.8,2.2,1,2.9c0.1,0.7,0.1,1.4,1,1.7c0.5,0.2,0.9,0.7,0.9,1.5
		c0,1.5,0.3,5,0.3,5s0.5,1.2,1,0.9c0.6-0.3,1.4-0.6,1.6-4.8c0.1-0.9,0.6-9.7,0.1-10.6c-1-1.6-0.3-2-1-2.8c-0.7-0.9-1.5-0.1-1.5-0.9
		c0-0.8,0.1-2.4-1-2.6c-1.7-0.3-1.6,1.4-1.7,2.1c-0.1,0.7-1.1,0.9-2.6,0.9c-0.9,0-2.1-0.4-2.9-0.8c-0.8-0.4-1.1-0.4-2.1-1.1
		c-0.6-0.4-0.8-0.8-0.6-2.9c0.2-1.8,1.6-3.1,0.7-3.9c-0.8-0.7-1-0.9-3.1-0.9c-2.1,0-3.7-0.1-3.5-1.2c0.2-1.7,2-1.7,5.2-1.5
		c1.4,0.1,2.6-1.1,2.2-2.5c-0.2-0.6,0.5-1.1,0.5-2.4c-0.1-1.3-1.5-2.2-2.6-1.6c-1.6,0.9-2.4,0.3-3.5,0.9c-2.2,1.3-3.3,0.9-4.3,0.3
		c-0.7-0.4-1.4-1.4-1-2.4c0.4-1,0.9-1.2,1-2.4c0.1-1.2-1.3-1.3-0.3-2.5c1.1-1.3,0-3.1,1.1-3.8c2.3-1.5,0.2-3,2.1-4
		c1-0.5,1.3-2.1,1.3-3.2c0-1.1-1.3-1.3-0.4-2.3c0.9-1,0.4-2.8,2.4-3c1.8-0.3,3-1.1,4.5-1.7c1.1-0.4,2.6-1.7,4.5-2.6
		c1.1-0.5,1.4-0.6,4.4-0.9c0.9-0.1,2.8-1.5,3.6-2.4c0.8-0.9,1.8-1.2,3.5-1.4c1.1-0.1,1.7,0.6,3.5,1.5c1.8,0.8,1.6,2,3.3,2.4
		c1,0.2,3-0.2,1.9,1.7c-0.8,1.3,0.4,2.4-1.4,2.7c-1.1,0.2-1.9,0.7-1.8,1.4c0.1,1.2,1.4,1.7,2.8,2.2c1.5,0.6,1.5,1.7,2.3,2.6
		c0.5,0.6,0.6,2.5,0.9,3.6c0.3,1.1,0.2,2.1,0.3,3c0.1,0.9,0.7,1.8,0.6,3.1c-0.1,1.4-0.8,2.1-1.3,3.1c-0.5,0.9-1,2.1-1.3,2.8
		c-0.4,0.9-0.2,2.2-0.4,3c-0.2,0.9-0.7,2.5,0,2.9c0.6,0.4,1.4,0,2.3,0.3c0.5,0.1,1.2,1,1.5,1.6c0.3,0.6-0.2,2.2,1.7,2.5
		c0.8,0.1,1.4,0.8,1.3,1.4c-0.2,1.5-0.6,2.8,0.6,4.3c0.8,1,1.8,0.8,3.6,0.7c1.7-0.1,1.5-2.2,1.8-3.4c0.4-1.2,1.7-3.4,3.2-4.2
		c0.8-0.5-0.9-2.6,3.3-3c4.2-0.4,5.6-0.2,6.3,1c1.6,3.1-0.1,3.2-1,4.8c-0.5,0.8-1.4,1.1-1.4,2.6c0.1,2.4,2.8,1.9,2.7,2.9
		c0,0.7-0.9,0.8-1,1.7c-0.1,0.9,1.3,1.1,1.4,2.2c0,0.5-2.3,1.9-0.9,2.9c0.8,0.5,1.5,1,1.8,3.7c0.1,1.2-1.7,1-1.6,2.3
		c0.1,1.6-0.2,2-1.1,2.5c-1.5,0.8-2.4,2.1-1.6,2.9c0.8,0.7,2,0.4,2.6,1.1c0.6,0.7-0.5,3.4,0.4,4.2c0.7,0.6,2.9-0.3,2,1.4
		c-1.2,2.4,1.7,2.8-1.1,4.1c-1.8,0.9-2.6,1-3.5,1.4c-1.5,0.6-3.2,1.3-3.4,2.3c-0.2,0.9,0.2,2.5-1.1,2.7c-1.3,0.2-1.3,1.9-0.9,2.5
		c0.4,0.6,1.4,1.3,1.4,2.1c0,0.9-0.4,2.2-0.2,3.6c0.1,1.1,0.8,1.8,1.7,2.3c0.7,0.3-0.6,1.5-0.2,2c0.5,0.6,1.8,1.2,3.9,1.2
		c1.8,0,4.2-0.4,5.7-0.4c1.5,0,0.9,0.9,1.5,1.4c1.5,1,3.3,0.1,4.2,0.9c1.4,1.3,2.3,0.7,2.7,1.9c0.2,0.7,0.9,0.9,1.2,1.7
		c0.3,0.8-0.6,1.8,0.2,2.6c0.7,0.7,0.2,1.7-0.2,2.3c-0.4,0.7-1.3,1.7-1.5,2.8c-0.2,1.1,0,1.9-1,2.9c-0.7,0.7-1.2,1.6-2.4,1.3
		c-1.3-0.3-2.6-0.7-4.3-1c-2.1-0.3-2,0.8-2.7,1.6c-0.7,0.8-3.3,0.9-3.4,2.4c-0.1,1,0.4,1.1,3,0.6c0.9-0.2,0.9,1.8,0.3,2.5
		c-0.4,1-1.2,2.6-3.3,3.5c-1.2,0.5-3-1.8-3.6-1.7c-1.2,0.2-2.3-0.9-3.2-0.1c-0.9,0.9-1.6,0.9-2.4,1.4s0.6,2.5-0.4,2.5
		c-0.9,0-2.1-0.2-2.4,0.8c-0.5,1.3,0.4,1.9,1.3,2.3c0.9,0.4,2.1,0.7,2.1,1.4c0,0.7-2,2.3-0.2,2.9c2.1,0.8,0.9,1.4,2.8,2
		c1.8,0.6,5.5,1.1,10.4,2.8c3.3,1.2,5.6,2.1,6.2,3.2c0.5,1-0.3,1.1-0.1,1.7c0.2,0.8,1.3,1.6,3.3,2.6c0.9,0.4,2,1.1,2.2,2.2
		c0.2,0.9-1.7,0.8-1.3,3.5c0.2,1.5-1.3,1.5-1.1,3.3c0.2,1.7-0.2,1.5-1.2,3.1c-1.1,1.8-2.5,2.2-1.9,3.3c0.3,0.7,1.6,0.7,2.9,0.7
		c0.9,0,1.6,0.4,4.4,0.5c4,0.2,4.4-1.1,7.4-1.2c1.1,0,3,0.5,3.4,1.1c0.5,0.7,0.3,1.2,0.2,2.3c-0.1,1.1-1.1,3.5-2.1,4
		c-1,0.6-2.2,0.2-2.7,1.1c-0.5,0.9,0.7,1.4,1,1.9c0.3,0.5,0.8,2.1-0.1,2.8c-1.1,0.8-1.6,2.1-2.2,2.8c-0.6,0.8-2.9,2-2.4,3.1
		c0.5,1.1,0.9,1.9,1.1,2.9c0.3,2.1-0.7,3.2-0.8,4c-0.1,0.9,0.9,0.8,0.2,2c-1,1.6-1.9,2-1.4,3.1c0.5,1.1-1.7,0.6-2.2,0.7
		c-0.6,0.2-1,0.9-1.2,1.8c-0.2,1,0.3,2.5-1.6,2.5c-1.8,0-4.5,0.1-5.2,0.6c-0.7,0.6,0.5,1.6-0.3,2.1c-0.9,0.6-1.4,0-2.1,0
		c-0.7,0-1.7,0.9-1.7,0.9s-0.6,0.9-0.9,1.5c-0.3,0.6-1.3,0.9-1.4,1.5c-0.1,0.7,0.6,1-0.1,2c-0.4,0.7-1.2,1-2,1.5
		c-0.8,0.5-1.2-0.3-1.7,0.9c-0.3,0.8-0.1,1.3-0.5,1.8c-0.6,0.7-2.1,1-3,1.4c-3.2,1.3-6.8,1.8-7.6,1.8c-0.7,0-4.9-0.1-5-1.6
		c-0.2-2.5-2.2-2.7-2.5-3.6c-0.7-1.7-3.1-2.6-3.1-3.9c0-1.7-6.3-1.2-6.5,0c-0.2,1,0,6.7-0.1,8c-0.1,2.3,0.1,5,0.5,16.3
		c0.3,7.5-0.1,9,0.9,16.7c0.6,4.6,1.5,6.7,2.1,7.9l1.8-0.5c-0.2,0,2.5-0.5,1.3-1.7c1.7-0.1,1.9-1.6-1-1.8c2-0.4,1.9-1.6,0.7-1.7
		c1.6-0.5,2.3-1.1,1.6-2c1.4,0.2,0.9-1,0.6-1.6c1,0.3,1.8-0.2,1.5-0.9c1.7,1.1,3-0.1,1-0.9c1.3-0.1,0.9-0.8-1.2-1
		c0.8,0.1,2.3-0.5,1.8-1.2c1,0.8,2.4-0.4,0.7-1.9c1.1-0.3,1.6-2.1,1.6-2.5c0.1,1.2-0.3,3.3,0.9,3c-0.7,0.7-0.6,1.4,1.6,1.4
		c-1.9,0.3-2.6,1.9,0,2.1c-1,0.7,1.7,0.6,2.9,1.1c-1.7,0.1-1.9,0.6-1.3,0.9c-1.8,0.7,0.2,1.3,2.8,1.6c-2.5,0.2-3.1,1.7-1.9,2.5
		c0.6,0.4,1.5,0.3,2.3,0c0.7-0.2,1.1-0.6,1.9-0.8c0.6-0.2,1.2-0.9-1-1.7c1.1,0.2,2.7,0.1,2.2-0.4c2.6-0.2,2.5-1.6-1.1-2.7
		c1,0.3,5-0.3,3-1.4c0.9-0.2,0.2-1.8-1.2-1.7c0.9-0.3,1.1-1.8-0.5-2.3c1.5,0,3-0.2,1.7-1c0.9,0.1,1.6-0.3,1.2-0.9
		c2,0.3,1.5-0.9,0.6-1.3c0.5-0.3,2-0.8,0.4-1.8c1.3,0.2,2.7,0,2.4-0.6c1.6-0.1,2.6-1.7-0.1-1.6c0.3-0.4,0.7-1.1-0.2-1.5
		c1.9,0,2.8-2.6,2-3.2c1.1,0.1,1-3,0.8-3.8c0.6,1.7,1,2.8,1.8,2.8c-1,0.7,0.1,1.9,1.3,2.1c-1,0.5,0.9,1.7,1.8,1.6
		c-1.7,0.9-1.8,2.6,2,3.8c-1.6-0.2-0.7,1.4,0,1.8c-0.6-0.4-2.7-0.4-2.1,0.5c-0.9,0.2-1.3,1.7,1.2,1c-0.3,0.6,1,1.2,2.7,1.4
		c-1.1,1-0.5,1.5,0.7,1.7c-0.5,0.4-1.2,0.8-0.2,1.5c-0.9,0.7-2,2.1,2.1,2.3c-1.9,0.8-0.2,1.2,0.9,1.8c-3.5-0.1-2.4,2.7,0.1,2.7
		c-1.4,0.5-0.5,1.8,1,2.3c-0.9,0.8,2.4,1.2,1.4-0.4c2-0.2,2.8-1.5,1.5-1.9c2.5-0.6,1-3.6,0.2-3.6c1.1-0.3,2.6-1.2,1.5-2
		c1.6,0.4,3.7-1.2-0.9-1.6c3.5-0.5,2.7-1.9,1.1-2.5c0.5-0.1,4.7,0.3,3-1.4c1.1-0.4-0.1-1.1-1.4-1c1-0.3,2.4-1.4,1.1-2
		c0.6,0,1.2-0.1,0.7-1.5c0.6,0.5,3.2,0.6,2.4-0.7c1-0.4,0.1-1.1-0.4-1.6c1.5-0.6,0.6-2.7,0.1-3.2c7.8-0.4,0.7-3.1,0-3.2
		c1.8,0,3.6-0.5,2.7-1.3c4,0.8,1.8-2.5,0.6-3c0.5-0.1,1.9-0.9,1.1-1.9c1.8,0.9,3,0.6,1.2-1.3c0.8-0.3,0.3-1.3-0.4-1.4
		c1.8,0.2,1.8-3.6,1.8-3.6s1.2,3.5,2.9,3.8c-1.6,0.5-1.3,3.1-0.1,3.3c-0.4,1.2,1.6,1,2.6,1.3c-2.9,0.1-2.4,1.8,0.1,2.2
		c-1.2,0.8,0.1,1.7,1.8,1.3c-1.6,0.6-1.6,1.7,0.5,2.9c-0.9,0.4-1.5,1.4-0.7,2.3c-1.2,0.1,0,1.7,2.4,2.2c-3.1,0.1-3.8,1.1,0.1,2.4
		c-0.7,0.2-0.4,1.2,1,1.5c-2.1,1-2,2.8,1.7,2.8c-1.4,0.5-0.1,0.8,1,1.7c-6.6,0.5-3.1,3.3-0.5,2.8c-2.3,1,1.4,0.8,2.7,1.4
		c-2.2,0.3-5,0.6-3.8,1.3c-1.4,0.3-1.4,2,3.9,1.9c-0.9,0.6,0.8,2.3,1.7,2.7c-6.2,0.9-3.3,1.8-0.1,2.5c-1,0.3-1.8,1.9,1.6,1.6
		c-2,0.5-3.8,1.5-2.2,2.5c1.6,0.9,1.4,1.2,20.5,2.9c15,1.4,17.6,1.7,21.1,2.2c4,0.6,1-2-0.3-3c6.1,1,3.1-1.9,2.2-2.7
		c0.8,0,2.7-0.4,1.2-1.4c3.3,0.5,2.2-1.8,1.6-2.4c4.3-1,2-2.3,0.7-3c0.8-0.3,1.5-0.6,0.9-1.4c2.7,1,1.9-0.4,0.9-1.1
		c1.1,0.1,2.7-1.7,1.1-2.5c1.8-0.4,1.3-1.2,0.8-1.4c4.6-0.2-0.7-2.4,0.6-1.8c2.1-0.6,3.5-2.9,1.8-3.5c1.6-0.3,2.8-1.6,1.2-2.5
		c0.9-0.5,1-1.9,0.6-2.7c3,0.6,2.1-2.1,1.2-2.4c2.2,0.4,2.5-4.7,2.5-4.7s0.2,3.4,2.3,3.6c-1.3,0.7,1.1,2.2,2.2,2.6
		c-1.9-0.1-2.2,1.3-1.3,1.7c-1.7,0.2,0.1,2.1,1.5,2.6c-2.9,0.6-0.5,1.7,0.2,2.3c-1.3,0.2-1.2,1.3,0.3,1.6c-1.5,0.7-0.3,2.3,0.4,2.5
		c0.8,0.2,1.6,0.1,2.4-0.6c1.2-1.2-0.3-2.1-1-2.4c2.8-0.5,2.6-2.7,1.7-3.1c2.1-0.2,1.5-2.7,0.7-3.2c1.7,0.1,1.8-2.1,1.9-3.4
		c0.5,1.7,0.3,3.1,1.4,3.7c-1.3,1.7,0.3,3.2,1.4,3c-0.8,0.4,0.2,1.9,1.1,2.2c-2.7,0.7,0.7,2.8,1.4,2.8c-1.5,1.5,1,2.6,1,2.6
		s-1.4,1.6-1.1,3c0.4,1.6,2.7,1.1,3.4,0.6c1.4-1.2-0.2-2.8-0.8-3.1c2.4-0.1,1.8-2.8,0.6-3.1c2.4,0,5.4-0.9,2-1.7
		c-0.4,0.1,2.7-1.1,0.6-1.7c3,0.1,1-2.7,1-2.7s3.1-0.3,1.5-1.6c1.7,0.4,2-1.3,2-1.3s-0.3,2.1,2.2,2.8c-1.6,0.8,0.5,0.9,0.9,1.1
		c-2.7,0.9-0.6,1.9,0.7,2.2c-1.5,0.4-1.3,1.5-0.1,2.1c-1.2,0.3,0.2,1.3,1.3,1.5c-1.8,1.4-1.1,3,0.4,3.2c-1.7,2.6,1,2.3,1.8,1.8
		c0.6-0.4,1-1,0.8-1.5c-0.2-0.5-0.7-0.4-1.3-0.7c2.6-0.7,1.3-2.3,0.5-2.7c3.3-0.3,2.4-2.4,1.8-2.9c0.8-0.1,1.7-0.4,1.2-1.1
		c0.8-0.2,0.4-1,0.8-2.1c0.1,1.4,0.4,2.6,1.2,2.9c-0.6,0.5,0.2,1,0.6,1.2c-2.3-0.4-0.6,1.4,0.2,1.5c-1,0.9-0.2,1.2,0.6,1.2
		c-0.7,0.7-0.3,1,0.5,1.2c-0.9,0.7,0.2,2.2,1.9,1.6c2.4-0.8,0-2.4-0.1-2.4c1.5,0,2.5-0.5,1.8-1.2c2.5,0.8,4.1-1.4,2-2.4
		c0.8-0.3,1.8-2.2-0.3-2.7c2.5,0.4,4-0.3,2.6-2.2c1.5,0.2,1.3-1.2,1.5-1.9c0.3,1.6,0.9,1.6,1.5,1.7c-0.8,1-0.1,1.5,0.4,1.8
		c-0.1,0.6,0.5,1.4,1.5,1.3c-0.6,0.5,0.1,1,0.7,1.1c-2.8,0.2-2,1.8-0.7,1.7c-0.2,0.9,0,1.3,1.5,1.1c-1,1.2,0.8,1.5,1.5,1.5
		c-2.3,0-2,2.8-0.4,2.2c-0.1,1.5,2.3,0.5,3,0.8c-1.7,1.6-1.3,2.9,2.4,2.3c-1.7,2.4,1.4,1.7,1.6,0.9c2.2,1.5,2.9-0.7,1.5-1.3
		c1-0.2,0.7-1-0.7-1.5c1.9,0,1.4-0.5,1.1-1.1c1.5,0.5,2.1-0.4,1.5-1.4c1.6,0.3,1.6-1.6,1.6-1.6s0.2,1.2,1.4,0.9
		c-0.6,1.3,0.5,1.7,1.9,1.3c-0.6,1.2,0.1,1.7,1.1,1.8c-0.1,0.5,0.1,1.3,0.7,1.7l-0.2,0.4c-0.7,1.4-1.3,2.7-1.3,3.3
		c0,1.5,0.9,2.6-0.6,3.7l-0.5,0.3c-14-1-37.2,1.2-46.6,2.1c-10.5,1.1-15.2,1.6-15.2,1.6c-21.1,3-14.9,3.4,13.9,7
		c8.7,1.1,9.5,1.5,11.7,1.7c2.2,0.2,3.3,0.9,10.9,1.8C427.3,427.1,433.4,428.6,434.8,428.7"/>
	<path class="st0" d="M245.7,347.8c0.7,0.5,2.1-0.4,3-0.2c2.1,0.5,2.1,0,3.8-0.1c2.1-0.2,2-1.2,2.8-1.2c0.8,0,2.2,0,3.7-1
		c0.6-0.4,0.6-1,0.6-1.6c-0.1-0.9-0.6-0.7-1.4-0.7c-0.7,0-0.1-0.5,0.6-0.7c0.5-0.2,1.2-0.3,1.6-0.7c0.4-0.4,0.4-0.8-0.5-1.3
		c-0.9-0.5-1.3,0-8.7,2c-7.2,2-6.6,3.8-6,3.8C246.2,346.4,244.9,347.3,245.7,347.8"/>
	<path class="st2" d="M194.7,368.1c-1.8,0.6-3.2-0.6-5.1-0.2c-2.6,0.6-9.3,1-13.6,1.6c-0.9,0.1-1,0.2-5.3,0.5
		c-2.6,0.2-5.2,0.4-5.9,0.1l0,0.2c0.2,0.9,0.9,2.3,1.7,4.2c0.9,2.2,2.6,8.3,2.9,9.6c0.3,1.3-0.2,3.2,0.2,4.4
		c0.4,1.2,1.7,2.3,2.2,3.3c0.5,1.1,4.2,8.5,5.9,11c1.3,1.9,5.4,9.8,7.5,14l0.1,0.1c0.4-0.2,0.9-0.4,1.2-0.5c0.8-0.3,0.7-0.6-0.3-0.8
		c0.7-0.2,1.7-0.9,0.9-1.3c0.8-0.4,1.7-1.5,0.9-1.7c0.6-0.5,0.9-2.5,0.9-2.5s0.2,1.2,1,2c-0.8,0,0.1,0.5,0.5,0.8
		c-0.5,0.3,0.3,0.6,0.6,0.9c-0.6,0.3-0.3,0.6,0.4,0.8c-0.5,0.3,0.3,0.5,0.9,0.3c-0.3,0.5-0.7,0.6-0.7,0.6s3.6-0.4,5.5-1.7
		c1.9-1.2,1.1-1.8-0.3-2.4c1.3-0.5,4.8-1.5,3.7-2.5c0.9-0.8-0.3-1.2-1.5-1.4c4.2-0.9,4.4-1.6,3.9-1.9c2.2-1.2-0.5-1.8-1.2-2.2
		c2.8,0.5,2.1-0.3,1.8-1.1c2.4,1.1,2.4-1.3,1.5-2c1-0.2,1.1-1.5-0.3-2.3c2.3,0.3,3.6-0.1,1.8-1.5c1.2-0.4,1.3-1,0.9-1.5
		c1.2-0.8,0.4-1.6-0.1-1.8c1.2-0.6,1-2.1,0.4-2.3c1.1-1.3,1.5-4.2,1.5-4.2s0,2.3,1.6,3.3c-0.6,0.6-0.1,1.8,0.7,1.8
		c-0.9,1.5-0.3,1.9,1.3,2.1c-0.6,0.8-1.1,1.5,1.1,1.6c-1.8,1.2-1.1,2,0.6,1.8c-1.8,0.6-0.6,1.8,1.3,1.4c-1.4,1.1-1.4,2.3,0.7,2
		c-2,0.9-2.2,2.4,0.9,2.3c-1,0-2,2.8,1.9,3.6c0.3-3.1,1.6-24.7,1.7-28.6c0.2-4.3-0.1-7.3-0.1-7.3s-0.3-0.2-2.1-0.1
		c-1.8,0.2-2.6,0.7-5.4-0.2c-2.7-0.9-3.2-0.3-5.2-0.2c-1.7,0.1-2.7-0.2-4.7,0.6c-2.1,0.8-4.3-0.2-5.2-1c-0.9-0.8,0-2.4,1.5-2.3
		C202.1,367.8,196.6,367.4,194.7,368.1"/>
	<path class="st0" d="M434.8,428.7c-1.3-0.1-7.5-1.6-11-2.1c-7.6-0.9-8.7-1.6-10.9-1.8c-2.2-0.2-3-0.6-11.7-1.7
		c-28.8-3.6-35-4.1-13.9-7c0,0,4.8-0.5,15.2-1.6c9.4-1,32.6-3.2,46.6-2.1l-0.4,0.3c-3,2.5-9,9.9-10.4,11.5c-1,1.2-2.2,2.4-3.2,3.9
		C435,428.4,434.9,428.5,434.8,428.7L434.8,428.7z"/>
	<path class="st4" d="M473,362.9c0.5-1.5,1.1-3.6,2-4.9c2-2.8,3.8-6,6.3-7.6c2.4-1.6,2.8-4.5,4-9.2c0.3-8.3,1.5-8.8,1.9-9.8
		c0.4-0.9,1-3.7,2.9-7.1c1.4-2.5,3.2-7.7,2.5-9.1c-1.2-2.6-2.3-4.9-3.5-9.2c-1.8-10.4-0.3-13.9,1.8-17.1c3.2-4.8,5.1-7.7,8.3-9.3
		c1.5-0.7,1.3-3.6,1-5.6c-0.8-5,0.7-4.7,1.6-7.3c0.8-2.7,1.6-6.2,1.6-7.1c0-0.9-0.5-3.2-0.7-4.4c-0.4-2.1-0.7-5.1-0.1-6.3
		c0.9-1.7,1.8-3.5,1.7-5.1c0-0.7,0.8-1.7,1.2-2.8c0.3-1.1,1-3.6,1-5.6c0-0.6,0.8-4.6,1.2-7.5c1-5.7,0.3-8.5-0.1-10.2
		c-0.6-2.3-1.9-3.4-1.8-4.2c0.1-1-0.2-4.3-0.4-6.3c-0.2-1.1,4.7-7.8,5.5-9.1c0.4-0.6-0.3-5.2-0.3-6.2c0-1-1.1-5.8-1.1-7
		c0-1.3,0.2-2.1,0.2-3.5c0-1.3-0.1-3.3-0.3-5.9c-0.2-4.6,0.2-9.4,0.2-10.6c0-1.1-1.8-1-4.9-2.7c-3.1-1.6-9.9-8.3-11-8.8
		c-1.1-0.5-6.6-1.5-9.5-1.5c-2.9,0-9,1.5-11.7,1.9c-2.7,0.4-6-0.8-7.6-1.2c-1.7-0.5-4.6-1.3-5.9-1.2c-3.7,0.4-9.7,0.5-12.2,0.1
		c-3-0.6-5.6-1.4-7.1-2.3c-1.3-0.9-1.8-0.6-3.3-2c-1.3-1.3-1.5-1.9-2.4-2c-0.9-0.2-9.7-0.9-11.4-2.5c-1.7-1.6-3.9-4.4-5.1-10.5
		c-1.2-5.9,0.9-10.1,3.1-11.3c3.4-1.8,8.2-4.7,10.7-4.9c1.1-0.1-1.4-4.5-2.7-8.9c-0.5-1.7-3-1.3-8.5-7.4c-2.5-2.8-6.8-8.2-7.9-10.1
		c-1.1-1.8,0.2-2.9-1-3c-1.5-0.1-6.5,0.1-14.3-1.3c-7.9-1.5-13-3.6-15.4-4.4c-2.4-0.7-7.9-2.6-9.6-3.2c-1.7-0.7-5.2-2.1-8.3-3.2
		c-3.1-1.1-4.4-3.5-6-3.6c-1.5-0.1-7.4,4-14.3,5c-7,1-9.3-0.8-13.1-1.3c-3.9-0.5-7.5-1.3-12.1-1.7c-4.6-0.3-17.9,2.2-20.2,2.4
		c-2.3,0.3-5.6,1.9-8.5,1.9c-1.8,0-12.1,3-13.9,3.4c-1.8,0.4-4.4-0.6-5.7-0.1c-1.9,0.6-5.1,1.3-6,1.5c-0.9,0.2-14.4,4.8-16.8,5.3
		c-2.7,0.6-6.6,1.8-9.7,3.1c-2,0.8-3.3,2.2-5,3.4c-5.8,4.1-7.4,4.3-10.2,5.1c-1.8,0.5-2.7,1.3-6.7,1.5c-4,0.2-5.1,1-5.1,1.7
		c-0.1,2.7-1,8.2,0.1,8.8c2.2,1.2,7.6,10.1,7.9,15.7c0.3,6.1-0.5,10.4-0.7,12.2c-0.2,1.6-0.4,2.6-1.2,3.5c-0.8,0.9-5.6,2.5-8.6,2.7
		c-2.9,0.2-4.5,0.3-15-2.4c-8.2-2.1-9-3-9.9-4.2c-0.9-1.2-3-2.2-4.4-2.9c-1.5-0.7-2.9-1.1-4.5-2.5c-1.4-1.2-7.8,1.9-16.6,2.6
		c-1.6,0.1-4.6,5.4-10,8.2c-4.3,2.2-6.3,3-7.7,4c-3.9,2.7-8.5,3.1-8,4.4c0.9,2.1-0.8,3.3-0.3,8.7c0.9,9.1-1.2,13.8-1.3,18.3
		c0,2.2,2.5,4.8,3.7,5.8c1.1,0.9,3.1,4.1,3.7,6.4c0.6,2.4-0.3,9.8-1.5,16.1c-1.2,6.4-1.9,13-1.7,15.2c0.2,1.6,2,4.6,2.9,6.4
		c1.1,2.1,3.3,9.6,3.4,13.5c0.1,3.5-0.8,7.9-0.8,8.6c0,0.7,1.2,3.5,2.3,5c1.4,1.8,4.2,8,5,9.5c1.1,2.1,1.3,4.7,1.3,4.7
		s-0.3,3.1-0.5,5c-0.2,1.8-0.8,8.3-1.4,16.4c-0.6,8-0.6,14.8,0.1,15.5c0.9,0.9,2.6,2.4,3.2,3.5c0.6,1.1,5.7,9.9,6.3,11.2
		c0.5,1.3,1.9,4.7,2.3,7.3c0.5,2.5,1.2,7.5,1.5,8.8c0.3,1.7,2.3,12.4,2.7,14.1c0.5,2.2,1.3,8.3,1.6,10.7c0.2,2.8,0.5,7.3,0.7,8.1
		c0.2,0.8,0.9,2.5,1.8,4.3c0.9,2.2,2.5,8.3,2.8,9.7c0.3,1.3-0.2,3.2,0.2,4.4c0.4,1.2,1.7,2.3,2.2,3.3c0.5,1,4.2,8.5,5.9,11
		c1.4,2.2,6.8,12.4,8.3,15.7c0.3,0.6,0.4,0.9,0.4,1c0,1.4,0.2,2.3,0.9,2.8c0.7,0.5,1.8,2.9,2.8,3.1c1.2,0.2,2.5,0.9,3.1,1.6
		c0.6,0.9,5.3,5.5,7,7.3c1.7,1.9,2.9,3.1,2.6,4.7c-0.2,1.2-0.1,3.3,0.7,4.1c1.2,1.3,3.2,2.3,7,7.2c3.1,4.1,4.3,7.6,5.8,10.5
		c1,1.8,2.4,6.6,2.4,7.9c0,1.3,0.8,2.2,1.4,3c0.8,1,2.9,2.8,4.5,3.5c0.7,0.3,3.1,2.4,5.2,4.8c2.1,2.3,3.8,4.2,4.7,9.7
		c0.3,1.7,0.3,3,0.9,3.1c0.6,0.1,1.9,0.5,2.3,1.1c0.5,0.6,0.5,1.5,1.4,2.2c2.7,1.8,3.1,3.7,3.3,4.9c0.3,1.2,0.8,4.6,1.1,6
		c0.2,1.1,5.6,6.8,7,9c1.2,1.9,2.9,2.1,6.8,4.3c3.8,2.2,4.1,3.5,4.3,4.6c0.3,1.1,0.1,6.5,0.5,7.2c0.9,1.3,1.5,0.7,2.9,2.5
		c1.5,1.8,3.4,4.5,4.4,5.8c1,1.3,8.8,6.2,13,10.1c1,1,3.6,3.7,5.3,4.9c1.3,0.9,3,1.7,4.5,2.4c1.5,0.6,3.6,1.4,8,4.4
		c1.1,0.7,3.6,1.9,5.1,2.8c1.9,1.1,7.1,4.1,9.1,4.1c4,0,6.1,1.5,8.4,1c9.7-1.9,11.8-3.2,14-5.4c2.1-2,5.3-6.6,6.4-7.6
		c1.1-0.9,4.6-4.9,7.3-6.8c7.7-7.4,6.8-5.9,11.5-9c2.6-1.7,4.9-2.2,6.4-4.6c2.3-3.7,5.9-9.1,6.5-11.4c0.4-1.4,1.3-1.8,1.8-3.2
		c0.5-1.3,0.3-2.3,1.9-3.1c1.3-0.5,4.3-4,5.9-4.9c0.9-0.6,0.2-3.6,1.4-5.1c0.9-1,4.6-3.5,8-5.9c6.3-4.5,10.9-10.7,13.3-13.1
		c2.6-2.7,1.4-6.4,0.5-7.7l1.8-2.7c0,0,3.3-3.7,5.4-5.8c2-2,7.2-8.6,8.7-10c1.1-1,0.5-6.8,0.7-8.5c0.2-1.7,3.9-4.6,5.2-5.9
		c1.3-1.3,1.8-2.4,2-4.8c0.2-2.4,1.9-12.7,2.4-14.5c0.3-0.9,0.7-1.6,1.1-2.4c1-1.6,2.2-2.7,3.2-3.9c1.3-1.5,7.7-9.2,10.7-11.7
		l0.5-0.4c1.5-1.1,0.7-2.2,0.6-3.7c0-0.7,0.6-2.1,1.4-3.5c0.8-1.6,2-3.5,2.9-4.5c2.7-3,2.3-4.7,6.7-8c1.6-1.2,1-4.7,1-4.7
		s0-1.3,0.9-3.4c0.9-2,4.1-6,6.1-8.1c0.8-0.8,1.4-3.4,1.4-4.7c0-1.1-0.2-3.4,1.1-5.9c0.2-0.5,0.5-0.9,0.8-1.3
		C472.6,364,472.8,363.5,473,362.9z"/>
	<path class="st0" d="M292.9,447.2c0,0,3.9-1.8,8.8-2.1c5.4-0.3,4.6,0.3,9.8,0.8c0.6,0.1,1.9,0.2,3.2,0.4c1.3,0.2,3.8,0.2,5.6,0.9
		c1.8,0.6,4.3,1.9,5.8,2.2c1.5,0.3,2.5,0.7,3.8,1.1c1.3,0.4,1.9,0.8,3.1,1.2c1.1,0.4,4.1,1.6,6.9,2.2c2.8,0.6,4.7,0.7,6.8,1.3
		c2.1,0.5,6.2,1.3,7.9,2c2.5,1.1,6.2,2.7,7.8,4.4c1.7,1.8,2.4,2.2,3.8,7.3c0.7,2.5,0,3.3-0.7,6.1c-0.6,2.8-1,3.6-0.7,4.6
		c0.3,1,0.2,2.5-0.2,3.4c-0.4,0.9-1,1.1-1.3,1.8c-0.3,0.6-1.6,1.5-1.6,1.5s-0.8-0.3-1-0.7c-0.2-0.4-0.3-0.8-0.7-1.3
		c-0.3-0.5-0.8-1.2-0.7-1.7c0.1-0.5-0.4-0.9,0.3-1.9c0.6-0.9,1-1.8,1-1.8s0.9-1.8,1.1-2.9c0.2-1.2,0.7-3.2,0.6-3.9
		c-0.1-0.7-0.4-2.5-0.4-2.5l-1.1-1.5c0,0-1.2-0.5-1.5,0.5c-0.4,1.3-0.3,1-1.1,3.8c-0.6,2.1-0.3,1.5-1.3,4c-1.1,2.5-1.7,3.1-2,4.6
		c-0.3,1.5,2,3,2.5,5.5c0.6,2.8,1.1,3.7,1.5,4.3c0.4,0.6,0.4,1.4,0.9,1.5c0.4,0.1,1.1,0.2,0.6,1.8c-0.5,1.6-2,5.1-2.2,6.9
		c-0.2,1.8-0.1,2.9-0.2,3c-0.1,0.1-0.4,0.2-0.6,0.5c-0.1,0.3-0.1,0.4-0.1,1c0,0.8-0.2,2.9-0.2,2.9s0.2,0.8-0.6,0.8
		c-0.9,0-5.3,0-5.8-0.1c-0.6,0-1.6-0.5-1.5-1.2c0.2-0.8,0.2-2.3,0.7-2.6c0.5-0.3,1.2-0.6,1.2-0.6s0.6-1.5,0.9-2.2
		c0.2-0.7,0.4-1.8,0.6-2.4c0.2-0.5,0.5-2.6,0.5-3.2c0-0.6,0.2-3.1-1.4-5.4c-1.5-2.2-0.9-2-2.1-2.8c-1.3-0.9-3.1-2-4.8-2.1
		c-1.1-0.1-2.6,0.4-3.4,0.9c-0.8,0.4-2.6,1.2-4.1,2c-1.7,0.9-3.4,1.7-4,2.1c-0.6,0.4-1.2,0.2-1.3-0.6c-0.1-0.7,0-1.5-0.8-1.3
		c-0.8,0.1-1.1,0.1-2,0.4c-0.8,0.3-1.8,1.1-2.2,2.4c-0.4,1.3-0.6,1.4-1,2.8c-0.3,0.8-0.6,1.6-1.5,2.5c-0.7,0.6-0.6,0.2-2.1,1.7
		c-1.3,1.2-1.4,1.3-2.1,2.8c-0.7,1.5-0.6,2.4-0.8,2.9c-0.2,0.5-0.1,1.2-0.2,1.6c0,0.4-0.2,1.6-0.2,1.6s0,1-0.4,1
		c-2,0-4.4,0.1-5.4,0.1c-0.8,0-1.2-0.3-0.9-0.9c0.5-1.3,1.3-1.9,1.4-2.3c0.1-0.4,0.4-2.4,0-3.8c-0.1-0.6-1.5-2.4-1.7-2.9
		c-0.2-0.4-0.2-1.6-0.9-2c-0.6-0.4-1.8-1.7-2-2.1c-0.2-0.4-1.9-1.4-2.7-1.4c-0.7,0-5.2-0.8-6.2-1.5c-1.1-0.6-4.3-2.3-4.9-2.7
		c-0.5-0.3-2.5-1.4-3.1-1.4c-0.5,0-1.2-0.2-2,0.5c-1.3,1.2-1.7,1.2-2.3,1.7c-0.6,0.6-0.5,0.6-1,1.2c-0.4,0.6-1.3,2.4-1.6,3
		c-1.3,2.6-2.4,2.2-2.4,2.2s-1.2,0.6-2.9-2.2c-1.7-2.8-2.4-3.8-2.4-3.8s-1-0.8-1.8-0.7c-0.7,0.1-2.6,0.5-3.1,0.4
		c-0.5-0.1-1.4,0.2-1.9-0.7c-0.6-0.9-1.3-2.2-1.1-4.1c0.2-1.9-0.8-3.2-0.9-3.7c-0.1-0.5-0.8-1.2-1.3-2.5c-0.4-1.3-0.3-3.1-1.3-4.9
		c-1.1-1.6-1.5-5-1.5-5s-0.1-0.7,0.1-2.1c0.2-1.5,0-2.7,0.4-4.5c0.5-1.8,0.8-3,2.4-4.2c1-0.7,1.9-2.2,3.2-2.7
		c1.3-0.5,2.7-1.7,3.8-1.7c1.1,0,1.4-0.7,3.5-0.3c2.1,0.4,3.7,0.9,5.1,0.6c1.4-0.2,2.8-0.2,4-1.9c1.3-1.7,2.3-3.3,2.9-3.6
		C290.4,448.8,292.9,447.2,292.9,447.2"/>
	<path class="st3" d="M279.5,466.9c0,0,3.5-0.2,3.6,3.6c2.9-2.5,2.6-4.6,2.6-4.6s0.2-3.2-2.2-5.7c-2.5-2.4-2.8-1.3-2.6,0.4
		c0.2,1.7,0.7,2.1,0.1,3.5C280.4,465.4,279.5,466.9,279.5,466.9"/>
	<path class="st3" d="M274.5,471.7c-0.2,0.5-0.5,0.6-0.8,0.9c-0.4,0.3-1.1,1.2,0.1,1.4c1.2,0.2,1.6,0,2.5-0.1
		c1.1-0.1,1.9-0.4,2.5-0.5c0.8-0.2,1.3-1.2,0-1.6c-1.6-0.4-1.8-1.3-2.8-1.3C274.9,470.6,274.7,471.3,274.5,471.7"/>
	<polygon class="st5" points="293.9,181.3 302.4,181.3 310.9,197.6 311,197.6 310.8,181.3 317,181.3 317,205.2 308.7,205.2 
		299.9,188.9 299.8,188.9 300,205.2 293.9,205.2 	"/>
	<polygon class="st6" points="293.9,181.3 302.4,181.3 310.9,197.6 311,197.6 310.8,181.3 317,181.3 317,205.2 308.7,205.2 
		299.9,188.9 299.8,188.9 300,205.2 293.9,205.2 	"/>
	<path class="st5" d="M333.7,186.2L333.7,186.2l-3.3,9.4h6.3L333.7,186.2z M329.6,181.3h8.2l9.7,23.9h-7.3l-1.9-5.1h-9.4l-2,5.1
		h-6.8L329.6,181.3z"/>
	<path class="st6" d="M333.7,186.2L333.7,186.2l-3.3,9.4h6.3L333.7,186.2z M329.6,181.3h8.2l9.7,23.9h-7.3l-1.9-5.1h-9.4l-2,5.1
		h-6.8L329.6,181.3z"/>
	<polygon class="st5" points="352.3,186 346.1,186 346.1,181.3 365.2,181.3 365.2,186 359,186 359,205.2 352.3,205.2 	"/>
	<polygon class="st6" points="352.3,186 346.1,186 346.1,181.3 365.2,181.3 365.2,186 359,186 359,205.2 352.3,205.2 	"/>
	<rect x="368.7" y="181.3" class="st5" width="6.7" height="23.9"/>
	<rect x="368.7" y="181.3" class="st6" width="6.7" height="23.9"/>
	<path class="st5" d="M392.4,200.9c4.1,0,5.7-3.7,5.7-7.6c0-4.1-1.6-7.6-5.7-7.6c-4.1,0-5.7,3.5-5.7,7.6
		C386.7,197.2,388.3,200.9,392.4,200.9 M392.4,180.9c8.3,0,12.6,4.7,12.6,12.4c0,7.6-4.4,12.4-12.6,12.4c-8.2,0-12.6-4.8-12.6-12.4
		C379.8,185.6,384.1,180.9,392.4,180.9"/>
	<path class="st6" d="M392.4,200.9c4.1,0,5.7-3.7,5.7-7.6c0-4.1-1.6-7.6-5.7-7.6c-4.1,0-5.7,3.5-5.7,7.6
		C386.7,197.2,388.3,200.9,392.4,200.9z M392.4,180.9c8.3,0,12.6,4.7,12.6,12.4c0,7.6-4.4,12.4-12.6,12.4c-8.2,0-12.6-4.8-12.6-12.4
		C379.8,185.6,384.1,180.9,392.4,180.9z"/>
	<polygon class="st5" points="409.2,181.3 417.7,181.3 426.2,197.6 426.2,197.6 426.1,181.3 432.2,181.3 432.2,205.2 423.9,205.2 
		415.2,188.9 415.1,188.9 415.3,205.2 409.2,205.2 	"/>
	<polygon class="st6" points="409.2,181.3 417.7,181.3 426.2,197.6 426.2,197.6 426.1,181.3 432.2,181.3 432.2,205.2 423.9,205.2 
		415.2,188.9 415.1,188.9 415.3,205.2 409.2,205.2 	"/>
	<path class="st5" d="M449,186.2L449,186.2l-3.3,9.4h6.3L449,186.2z M444.9,181.3h8.2l9.7,23.9h-7.3l-1.9-5.1h-9.4l-2,5.1h-6.8
		L444.9,181.3z"/>
	<path class="st6" d="M449,186.2L449,186.2l-3.3,9.4h6.3L449,186.2z M444.9,181.3h8.2l9.7,23.9h-7.3l-1.9-5.1h-9.4l-2,5.1h-6.8
		L444.9,181.3z"/>
	<polygon class="st5" points="465.7,181.3 472.4,181.3 472.4,200.5 482.8,200.5 482.8,205.2 465.7,205.2 	"/>
	<polygon class="st6" points="465.7,181.3 472.4,181.3 472.4,200.5 482.8,200.5 482.8,205.2 465.7,205.2 	"/>
	<path class="st5" d="M345.8,230.8h1.8c2.4,0,4.3-0.8,4.3-3.3c0-2.4-1.9-3.2-4.3-3.2h-1.8V230.8z M338.9,219.8h8.2
		c7.9,0,11.6,2.5,11.6,7.9c0,4.8-3.8,7.7-10.2,7.7h-2.7v8.4h-6.9V219.8z"/>
	<path class="st6" d="M345.8,230.8h1.8c2.4,0,4.3-0.8,4.3-3.3c0-2.4-1.9-3.2-4.3-3.2h-1.8V230.8z M338.9,219.8h8.2
		c7.9,0,11.6,2.5,11.6,7.9c0,4.8-3.8,7.7-10.2,7.7h-2.7v8.4h-6.9V219.8z"/>
	<path class="st5" d="M371.4,224.7L371.4,224.7l-3.4,9.4h6.5L371.4,224.7z M367.2,219.8h8.4l9.9,23.9H378l-1.9-5.1h-9.7l-2,5.1h-7
		L367.2,219.8z"/>
	<path class="st6" d="M371.4,224.7L371.4,224.7l-3.4,9.4h6.5L371.4,224.7z M367.2,219.8h8.4l9.9,23.9H378l-1.9-5.1h-9.7l-2,5.1h-7
		L367.2,219.8z"/>
	<path class="st5" d="M395.3,229.7h1.8c2.2,0,5-0.1,5-2.8c0-2.2-2.4-2.6-5-2.6h-1.8V229.7z M388.4,219.8h12.3c4.6,0,8.3,1.9,8.3,6
		c0,3.2-1.6,5.3-5,6v0.1c2.2,0.5,2.4,2.4,3.7,5.3l2.5,6.5h-7.2l-1.5-4.3c-1.4-4.1-2.3-5.1-4.8-5.1h-1.4v9.5h-6.9V219.8z"/>
	<path class="st6" d="M395.3,229.7h1.8c2.2,0,5-0.1,5-2.8c0-2.2-2.4-2.6-5-2.6h-1.8V229.7z M388.4,219.8h12.3c4.6,0,8.3,1.9,8.3,6
		c0,3.2-1.6,5.3-5,6v0.1c2.2,0.5,2.4,2.4,3.7,5.3l2.5,6.5h-7.2l-1.5-4.3c-1.4-4.1-2.3-5.1-4.8-5.1h-1.4v9.5h-6.9V219.8z"/>
	<polygon class="st5" points="413.7,219.8 420.5,219.8 420.5,229.5 420.6,229.5 428.4,219.8 436.7,219.8 427.1,230.9 437.4,243.7 
		428.6,243.7 420.6,232.8 420.5,232.8 420.5,243.7 413.7,243.7 	"/>
	<polygon class="st6" points="413.7,219.8 420.5,219.8 420.5,229.5 420.6,229.5 428.4,219.8 436.7,219.8 427.1,230.9 437.4,243.7 
		428.6,243.7 420.6,232.8 420.5,232.8 420.5,243.7 413.7,243.7 	"/>
	<path class="st5" d="M311.3,276.3c1.8,0.9,4.2,1.6,7,1.6c2.2,0,4.2-0.4,4.2-2.3c0-4.5-12.1-1.6-12.1-10.4c0-5.8,6-7.3,11.1-7.3
		c2.5,0,4.9,0.3,6.6,0.9l-0.4,4.9c-1.8-0.8-3.7-1.1-5.7-1.1c-1.7,0-4.6,0.1-4.6,2.2c0,3.9,12.1,1.3,12.1,9.9c0,6.2-5.6,7.9-11.2,7.9
		c-2.4,0-5.4-0.3-7.6-1L311.3,276.3z"/>
	<path class="st6" d="M311.3,276.3c1.8,0.9,4.2,1.6,7,1.6c2.2,0,4.2-0.4,4.2-2.3c0-4.5-12.1-1.6-12.1-10.4c0-5.8,6-7.3,11.1-7.3
		c2.5,0,4.9,0.3,6.6,0.9l-0.4,4.9c-1.8-0.8-3.7-1.1-5.7-1.1c-1.7,0-4.6,0.1-4.6,2.2c0,3.9,12.1,1.3,12.1,9.9c0,6.2-5.6,7.9-11.2,7.9
		c-2.4,0-5.4-0.3-7.6-1L311.3,276.3z"/>
	<polygon class="st5" points="333.8,258.2 351.8,258.2 351.8,262.8 340.6,262.8 340.6,267.7 351.2,267.7 351.2,272.2 340.6,272.2 
		340.6,277.7 352.2,277.7 352.2,282.2 333.8,282.2 	"/>
	<polygon class="st6" points="333.8,258.2 351.8,258.2 351.8,262.8 340.6,262.8 340.6,267.7 351.2,267.7 351.2,272.2 340.6,272.2 
		340.6,277.7 352.2,277.7 352.2,282.2 333.8,282.2 	"/>
	<path class="st5" d="M363.3,268.2h1.8c2.2,0,5-0.1,5-2.8c0-2.2-2.4-2.6-5-2.6h-1.8V268.2z M356.5,258.2h12.2c4.5,0,8.2,1.9,8.2,6
		c0,3.2-1.6,5.3-4.9,6v0.1c2.2,0.5,2.3,2.4,3.6,5.3l2.5,6.5H371l-1.5-4.3c-1.4-4.1-2.3-5.1-4.8-5.1h-1.4v9.5h-6.8V258.2z"/>
	<path class="st6" d="M363.3,268.2h1.8c2.2,0,5-0.1,5-2.8c0-2.2-2.4-2.6-5-2.6h-1.8V268.2z M356.5,258.2h12.2c4.5,0,8.2,1.9,8.2,6
		c0,3.2-1.6,5.3-4.9,6v0.1c2.2,0.5,2.3,2.4,3.6,5.3l2.5,6.5H371l-1.5-4.3c-1.4-4.1-2.3-5.1-4.8-5.1h-1.4v9.5h-6.8V258.2z"/>
	<polygon class="st5" points="379.7,258.2 387,258.2 392.7,277 392.7,277 398.4,258.2 405.4,258.2 396.7,282.2 388.3,282.2 	"/>
	<polygon class="st6" points="379.7,258.2 387,258.2 392.7,277 392.7,277 398.4,258.2 405.4,258.2 396.7,282.2 388.3,282.2 	"/>
	<rect x="408.9" y="258.2" class="st5" width="6.8" height="23.9"/>
	<rect x="408.9" y="258.2" class="st6" width="6.8" height="23.9"/>
	<path class="st5" d="M442.5,281.6c-1.9,0.4-4.1,1-7.6,1c-6.8,0-14.7-3.2-14.7-12.3c0-8.3,6.2-12.5,14.7-12.5c2.6,0,5.1,0.5,7.6,1.2
		l-0.6,5.2c-2.2-1.1-4.3-1.7-6.7-1.7c-4.8,0-8,3.3-8,7.7c0,4.7,3.6,7.5,8.5,7.5c2.2,0,4.5-0.5,6.4-1.2L442.5,281.6z"/>
	<path class="st6" d="M442.5,281.6c-1.9,0.4-4.1,1-7.6,1c-6.8,0-14.7-3.2-14.7-12.3c0-8.3,6.2-12.5,14.7-12.5c2.6,0,5.1,0.5,7.6,1.2
		l-0.6,5.2c-2.2-1.1-4.3-1.7-6.7-1.7c-4.8,0-8,3.3-8,7.7c0,4.7,3.6,7.5,8.5,7.5c2.2,0,4.5-0.5,6.4-1.2L442.5,281.6z"/>
	<polygon class="st5" points="445.8,258.2 463.8,258.2 463.8,262.8 452.6,262.8 452.6,267.7 463.2,267.7 463.2,272.2 452.6,272.2 
		452.6,277.7 464.2,277.7 464.2,282.2 445.8,282.2 	"/>
	<polygon class="st6" points="445.8,258.2 463.8,258.2 463.8,262.8 452.6,262.8 452.6,267.7 463.2,267.7 463.2,272.2 452.6,272.2 
		452.6,277.7 464.2,277.7 464.2,282.2 445.8,282.2 	"/>
</g>
</svg>
